<?xml version="1.0" encoding="us-ascii" standalone="no"?><svg xmlns="http://www.w3.org/2000/svg" xmlns:xlink="http://www.w3.org/1999/xlink" contentStyleType="text/css" height="141px" preserveAspectRatio="none" style="width:407px;height:141px;background:#FFFFFF;" version="1.1" viewBox="0 0 407 141" width="407px" zoomAndPan="magnify"><defs/><g><g id="elem_tableA"><rect fill="#F1F1F1" height="102.4414" style="stroke:#181818;stroke-width:0.5;" width="73" x="7" y="7"/><text fill="#000000" font-family="sans-serif" font-size="14" lengthAdjust="spacing" textLength="44" x="21.5" y="22.5352">tableA</text><line style="stroke:#181818;stroke-width:1.0;" x1="7" x2="80" y1="27.4883" y2="27.4883"/><text fill="#000000" font-family="sans-serif" font-size="14" lengthAdjust="spacing" textLength="9" x="12" y="43.0234">1</text><text fill="#000000" font-family="sans-serif" font-size="14" lengthAdjust="spacing" textLength="33" x="31" y="43.0234">"foo"</text><line style="stroke:#181818;stroke-width:1.0;" x1="26" x2="26" y1="27.4883" y2="47.9766"/><line style="stroke:#181818;stroke-width:1.0;" x1="7" x2="80" y1="47.9766" y2="47.9766"/><text fill="#000000" font-family="sans-serif" font-size="14" lengthAdjust="spacing" textLength="9" x="12" y="63.5117">2</text><text fill="#000000" font-family="sans-serif" font-size="14" lengthAdjust="spacing" textLength="33" x="31" y="63.5117">"bar"</text><line style="stroke:#181818;stroke-width:1.0;" x1="26" x2="26" y1="47.9766" y2="68.4648"/><line style="stroke:#181818;stroke-width:1.0;" x1="7" x2="80" y1="68.4648" y2="68.4648"/><text fill="#000000" font-family="sans-serif" font-size="14" lengthAdjust="spacing" textLength="4" x="14.5" y="84">&#160;</text><text fill="#000000" font-family="sans-serif" font-size="14" lengthAdjust="spacing" textLength="26" x="31" y="84">null</text><line style="stroke:#181818;stroke-width:1.0;" x1="26" x2="26" y1="68.4648" y2="88.9531"/><line style="stroke:#181818;stroke-width:1.0;" x1="7" x2="80" y1="88.9531" y2="88.9531"/><text fill="#000000" font-family="sans-serif" font-size="14" lengthAdjust="spacing" textLength="9" x="12" y="104.4883">4</text><text fill="#000000" font-family="sans-serif" font-size="14" lengthAdjust="spacing" textLength="44" x="31" y="104.4883">"hello"</text><line style="stroke:#181818;stroke-width:1.0;" x1="26" x2="26" y1="88.9531" y2="109.4414"/></g><g id="elem_tableB"><rect fill="#F1F1F1" height="102.4414" style="stroke:#181818;stroke-width:0.5;" width="64" x="131.5" y="7"/><text fill="#000000" font-family="sans-serif" font-size="14" lengthAdjust="spacing" textLength="42" x="142.5" y="22.5352">tableB</text><line style="stroke:#181818;stroke-width:1.0;" x1="131.5" x2="195.5" y1="27.4883" y2="27.4883"/><text fill="#000000" font-family="sans-serif" font-size="14" lengthAdjust="spacing" textLength="9" x="136.5" y="43.0234">1</text><text fill="#000000" font-family="sans-serif" font-size="14" lengthAdjust="spacing" textLength="26" x="155.5" y="43.0234">null</text><line style="stroke:#181818;stroke-width:1.0;" x1="150.5" x2="150.5" y1="27.4883" y2="47.9766"/><line style="stroke:#181818;stroke-width:1.0;" x1="131.5" x2="195.5" y1="47.9766" y2="47.9766"/><text fill="#000000" font-family="sans-serif" font-size="14" lengthAdjust="spacing" textLength="9" x="136.5" y="63.5117">2</text><text fill="#000000" font-family="sans-serif" font-size="14" lengthAdjust="spacing" textLength="26" x="155.5" y="63.5117">null</text><line style="stroke:#181818;stroke-width:1.0;" x1="150.5" x2="150.5" y1="47.9766" y2="68.4648"/><line style="stroke:#181818;stroke-width:1.0;" x1="131.5" x2="195.5" y1="68.4648" y2="68.4648"/><text fill="#000000" font-family="sans-serif" font-size="14" lengthAdjust="spacing" textLength="9" x="136.5" y="84">3</text><text fill="#000000" font-family="sans-serif" font-size="14" lengthAdjust="spacing" textLength="35" x="155.5" y="84">"baz"</text><line style="stroke:#181818;stroke-width:1.0;" x1="150.5" x2="150.5" y1="68.4648" y2="88.9531"/><line style="stroke:#181818;stroke-width:1.0;" x1="131.5" x2="195.5" y1="88.9531" y2="88.9531"/><text fill="#000000" font-family="sans-serif" font-size="14" lengthAdjust="spacing" textLength="9" x="136.5" y="104.4883">4</text><text fill="#000000" font-family="sans-serif" font-size="14" lengthAdjust="spacing" textLength="26" x="155.5" y="104.4883">null</text><line style="stroke:#181818;stroke-width:1.0;" x1="150.5" x2="150.5" y1="88.9531" y2="109.4414"/></g><g id="elem_tableA_pk_sequence"><rect fill="#F1F1F1" height="40.9766" style="stroke:#181818;stroke-width:0.5;" width="154" x="246.5" y="38"/><text fill="#000000" font-family="sans-serif" font-size="14" lengthAdjust="spacing" textLength="140" x="253.5" y="53.5352">tableA_pk_sequence</text><line style="stroke:#181818;stroke-width:1.0;" x1="246.5" x2="400.5" y1="58.4883" y2="58.4883"/><text fill="#000000" font-family="sans-serif" font-size="14" lengthAdjust="spacing" textLength="31" x="251.5" y="74.0234">next</text><text fill="#000000" font-family="sans-serif" font-size="14" lengthAdjust="spacing" textLength="9" x="292.5" y="74.0234">5</text><line style="stroke:#181818;stroke-width:1.0;" x1="287.5" x2="287.5" y1="58.4883" y2="78.9766"/></g><!--link tableA to tableB--><g id="link_tableA_tableB"><path codeLine="23" d="M81.5,37 C81.5,37 112.62,37 125.26,37 " fill="none" id="tableA-to-tableB" style="stroke:#181818;stroke-width:1.0;"/><polygon fill="#181818" points="130.5,37,121.5,33,125.5,37,121.5,41,130.5,37" style="stroke:#181818;stroke-width:1.0;"/></g><!--link tableA to tableB--><g id="link_tableA_tableB"><path codeLine="24" d="M81.5,98 C81.5,98 112.62,98 125.26,98 " fill="none" id="tableA-to-tableB-1" style="stroke:#181818;stroke-width:1.0;"/><polygon fill="#181818" points="130.5,98,121.5,94,125.5,98,121.5,102,130.5,98" style="stroke:#181818;stroke-width:1.0;"/></g><text fill="#000000" font-family="sans-serif" font-size="14" lengthAdjust="spacing" textLength="357" x="18.25" y="129.9766">Arrows mean data migration from table A to table B.</text><!--SRC=[LO_1Ri8m38RlUGghTv1WtGLfIE4PTaSkk12Hs5dgQh1fxqwQLgNBoP__Bt-KxkOuOi80Psgnz_f9TxNUNJWGApIYAi5qi-KTapuYGHJ_6C2OW14K6qyMVWtaiu6FFLIjI5LmMx31D686xhqlSrsYAtcVtRz5rM5PDUlRV_GszVvKhwuIBeliCTwE7Ntrn2UQIZb_SP3V1tEqThiDhFRJsndcTRrSryQSCAeJ1fkIV7SG21dEg0Z1NHAMg4qInYjWGMKQ3slp1000]--></g></svg>