<?xml version="1.0" encoding="us-ascii" standalone="no"?><svg xmlns="http://www.w3.org/2000/svg" xmlns:xlink="http://www.w3.org/1999/xlink" contentStyleType="text/css" height="986px" preserveAspectRatio="none" style="width:1178px;height:986px;background:#FFFFFF;" version="1.1" viewBox="0 0 1178 986" width="1178px" zoomAndPan="magnify"><defs/><g><text fill="#000000" font-family="sans-serif" font-size="14" font-weight="bold" lengthAdjust="spacing" textLength="262" x="451" y="23.5352">After Using @Inheritance annotation</text><!--cluster model--><g id="cluster_model"><path d="M299.5,43.4883 L345.5,43.4883 A3.75,3.75 0 0 1 348,45.9883 L355,65.9766 L853.5,65.9766 A2.5,2.5 0 0 1 856,68.4766 L856,395.9883 A2.5,2.5 0 0 1 853.5,398.4883 L299.5,398.4883 A2.5,2.5 0 0 1 297,395.9883 L297,45.9883 A2.5,2.5 0 0 1 299.5,43.4883 " fill="none" style="stroke:#000000;stroke-width:1.5;"/><line style="stroke:#000000;stroke-width:1.5;" x1="297" x2="355" y1="65.9766" y2="65.9766"/><text fill="#000000" font-family="sans-serif" font-size="14" font-weight="bold" lengthAdjust="spacing" textLength="45" x="301" y="59.0234">model</text></g><!--cluster entity2--><g id="cluster_entity2"><path d="M299.5,422.4883 L351.5,422.4883 A3.75,3.75 0 0 1 354,424.9883 L361,444.9766 L853.5,444.9766 A2.5,2.5 0 0 1 856,447.4766 L856,741.9883 A2.5,2.5 0 0 1 853.5,744.4883 L299.5,744.4883 A2.5,2.5 0 0 1 297,741.9883 L297,424.9883 A2.5,2.5 0 0 1 299.5,422.4883 " fill="none" style="stroke:#000000;stroke-width:1.5;"/><line style="stroke:#000000;stroke-width:1.5;" x1="297" x2="361" y1="444.9766" y2="444.9766"/><text fill="#000000" font-family="sans-serif" font-size="14" font-weight="bold" lengthAdjust="spacing" textLength="51" x="301" y="438.0234">entity2</text></g><!--cluster DB--><g id="cluster_DB"><path d="M6,778.4883 C6,768.4883 583.5,768.4883 583.5,768.4883 C583.5,768.4883 1161,768.4883 1161,778.4883 L1161,934.4883 C1161,944.4883 583.5,944.4883 583.5,944.4883 C583.5,944.4883 6,944.4883 6,934.4883 L6,778.4883 " fill="none" style="stroke:#181818;stroke-width:1.0;"/><path d="M6,778.4883 C6,788.4883 583.5,788.4883 583.5,788.4883 C583.5,788.4883 1161,788.4883 1161,778.4883 " fill="none" style="stroke:#181818;stroke-width:1.0;"/><text fill="#000000" font-family="sans-serif" font-size="14" font-weight="bold" lengthAdjust="spacing" textLength="20" x="573.5" y="804.0234">DB</text></g><!--class SinglePaymentOrder--><g id="elem_SinglePaymentOrder"><rect codeLine="3" fill="#F1F1F1" height="146.9297" id="SinglePaymentOrder" rx="2.5" ry="2.5" style="stroke:#181818;stroke-width:0.5;" width="246" x="313" y="235.4883"/><ellipse cx="361.75" cy="251.4883" fill="#ADD1B2" rx="11" ry="11" style="stroke:#181818;stroke-width:1.0;"/><path d="M364.2231,257.6313 Q363.6421,257.9302 363.0029,258.0796 Q362.3638,258.229 361.6582,258.229 Q359.1514,258.229 357.8315,256.5771 Q356.5117,254.9253 356.5117,251.8042 Q356.5117,248.6748 357.8315,247.0229 Q359.1514,245.3711 361.6582,245.3711 Q362.3638,245.3711 363.0112,245.5205 Q363.6587,245.6699 364.2231,245.9688 L364.2231,248.6914 Q363.5923,248.1104 362.9988,247.8406 Q362.4053,247.5708 361.7744,247.5708 Q360.4297,247.5708 359.7449,248.6375 Q359.0601,249.7041 359.0601,251.8042 Q359.0601,253.896 359.7449,254.9626 Q360.4297,256.0293 361.7744,256.0293 Q362.4053,256.0293 362.9988,255.7595 Q363.5923,255.4897 364.2231,254.9087 Z " fill="#000000"/><text fill="#000000" font-family="sans-serif" font-size="14" lengthAdjust="spacing" textLength="140" x="382.25" y="256.7793">SinglePaymentOrder</text><line style="stroke:#181818;stroke-width:0.5;" x1="314" x2="558" y1="267.4883" y2="267.4883"/><text fill="#000000" font-family="sans-serif" font-size="14" lengthAdjust="spacing" textLength="139" x="319" y="285.0234">override val id: Long</text><text fill="#000000" font-family="sans-serif" font-size="14" lengthAdjust="spacing" textLength="169" x="319" y="301.5117">override val userId: Long</text><text fill="#000000" font-family="sans-serif" font-size="14" lengthAdjust="spacing" textLength="160" x="319" y="318">override val type: Enum</text><text fill="#000000" font-family="sans-serif" font-size="14" lengthAdjust="spacing" textLength="234" x="319" y="334.4883">val singlePaymentProductId : Long</text><text fill="#000000" font-family="sans-serif" font-size="14" lengthAdjust="spacing" textLength="138" x="319" y="350.9766">val paidAmount : Int</text><text fill="#000000" font-family="sans-serif" font-size="14" lengthAdjust="spacing" textLength="127" x="319" y="367.4648">val paidAt : Instant</text><line style="stroke:#181818;stroke-width:0.5;" x1="314" x2="558" y1="374.418" y2="374.418"/></g><!--class Order--><g id="elem_Order"><rect codeLine="12" fill="#F1F1F1" height="97.4648" id="Order" rx="2.5" ry="2.5" style="stroke:#181818;stroke-width:0.5;" width="179" x="486.5" y="78.4883"/><ellipse cx="551.75" cy="94.4883" fill="#A9DCDF" rx="11" ry="11" style="stroke:#181818;stroke-width:1.0;"/><path d="M551.6133,89.8364 L550.4595,94.9082 L552.7754,94.9082 Z M550.1191,87.5952 L553.1157,87.5952 L556.4609,99.9883 L554.0122,99.9883 L553.2485,96.9253 L549.9697,96.9253 L549.2227,99.9883 L546.7739,99.9883 Z " fill="#000000"/><text fill="#000000" font-family="sans-serif" font-size="14" font-style="italic" lengthAdjust="spacing" textLength="40" x="572.25" y="99.7793">Order</text><line style="stroke:#181818;stroke-width:0.5;" x1="487.5" x2="664.5" y1="110.4883" y2="110.4883"/><text fill="#000000" font-family="sans-serif" font-size="14" lengthAdjust="spacing" textLength="137" x="492.5" y="128.0234">abstract val id: Long</text><text fill="#000000" font-family="sans-serif" font-size="14" lengthAdjust="spacing" textLength="167" x="492.5" y="144.5117">abstract val userId: Long</text><text fill="#000000" font-family="sans-serif" font-size="14" lengthAdjust="spacing" textLength="158" x="492.5" y="161">abstract val type: Enum</text><line style="stroke:#181818;stroke-width:0.5;" x1="487.5" x2="664.5" y1="167.9531" y2="167.9531"/></g><!--class SubscriptionOrder--><g id="elem_SubscriptionOrder"><rect codeLine="18" fill="#F1F1F1" height="146.9297" id="SubscriptionOrder" rx="2.5" ry="2.5" style="stroke:#181818;stroke-width:0.5;" width="245" x="594.5" y="235.4883"/><ellipse cx="649.75" cy="251.4883" fill="#ADD1B2" rx="11" ry="11" style="stroke:#181818;stroke-width:1.0;"/><path d="M652.2231,257.6313 Q651.6421,257.9302 651.0029,258.0796 Q650.3638,258.229 649.6582,258.229 Q647.1514,258.229 645.8315,256.5771 Q644.5117,254.9253 644.5117,251.8042 Q644.5117,248.6748 645.8315,247.0229 Q647.1514,245.3711 649.6582,245.3711 Q650.3638,245.3711 651.0112,245.5205 Q651.6587,245.6699 652.2231,245.9688 L652.2231,248.6914 Q651.5923,248.1104 650.9988,247.8406 Q650.4053,247.5708 649.7744,247.5708 Q648.4297,247.5708 647.7449,248.6375 Q647.0601,249.7041 647.0601,251.8042 Q647.0601,253.896 647.7449,254.9626 Q648.4297,256.0293 649.7744,256.0293 Q650.4053,256.0293 650.9988,255.7595 Q651.5923,255.4897 652.2231,254.9087 Z " fill="#000000"/><text fill="#000000" font-family="sans-serif" font-size="14" lengthAdjust="spacing" textLength="126" x="670.25" y="256.7793">SubscriptionOrder</text><line style="stroke:#181818;stroke-width:0.5;" x1="595.5" x2="838.5" y1="267.4883" y2="267.4883"/><text fill="#000000" font-family="sans-serif" font-size="14" lengthAdjust="spacing" textLength="139" x="600.5" y="285.0234">override val id: Long</text><text fill="#000000" font-family="sans-serif" font-size="14" lengthAdjust="spacing" textLength="169" x="600.5" y="301.5117">override val userId: Long</text><text fill="#000000" font-family="sans-serif" font-size="14" lengthAdjust="spacing" textLength="160" x="600.5" y="318">override val type: Enum</text><text fill="#000000" font-family="sans-serif" font-size="14" lengthAdjust="spacing" textLength="220" x="600.5" y="334.4883">val subscriptionProductId : Long</text><text fill="#000000" font-family="sans-serif" font-size="14" lengthAdjust="spacing" textLength="233" x="600.5" y="350.9766">val paymentAmountPerMonth : Int</text><text fill="#000000" font-family="sans-serif" font-size="14" lengthAdjust="spacing" textLength="150" x="600.5" y="367.4648">val lastPaidAt : Instant</text><line style="stroke:#181818;stroke-width:0.5;" x1="595.5" x2="838.5" y1="374.418" y2="374.418"/></g><!--class JpaSinglePaymentOrderEntity--><g id="elem_JpaSinglePaymentOrderEntity"><rect codeLine="29" fill="#F1F1F1" height="130.4414" id="JpaSinglePaymentOrderEntity" rx="2.5" ry="2.5" style="stroke:#181818;stroke-width:0.5;" width="246" x="313" y="598.4883"/><ellipse cx="334.75" cy="614.4883" fill="#ADD1B2" rx="11" ry="11" style="stroke:#181818;stroke-width:1.0;"/><path d="M337.2231,620.6313 Q336.6421,620.9302 336.0029,621.0796 Q335.3638,621.229 334.6582,621.229 Q332.1514,621.229 330.8315,619.5771 Q329.5117,617.9253 329.5117,614.8042 Q329.5117,611.6748 330.8315,610.0229 Q332.1514,608.3711 334.6582,608.3711 Q335.3638,608.3711 336.0112,608.5205 Q336.6587,608.6699 337.2231,608.9688 L337.2231,611.6914 Q336.5923,611.1104 335.9988,610.8406 Q335.4053,610.5708 334.7744,610.5708 Q333.4297,610.5708 332.7449,611.6375 Q332.0601,612.7041 332.0601,614.8042 Q332.0601,616.896 332.7449,617.9626 Q333.4297,619.0293 334.7744,619.0293 Q335.4053,619.0293 335.9988,618.7595 Q336.5923,618.4897 337.2231,617.9087 Z " fill="#000000"/><text fill="#000000" font-family="sans-serif" font-size="14" lengthAdjust="spacing" textLength="199" x="350.25" y="619.7793">JpaSinglePaymentOrderEntity</text><line style="stroke:#181818;stroke-width:0.5;" x1="314" x2="558" y1="630.4883" y2="630.4883"/><text fill="#000000" font-family="sans-serif" font-size="14" lengthAdjust="spacing" textLength="143" x="319" y="648.0234">override val id : Long</text><text fill="#000000" font-family="sans-serif" font-size="14" lengthAdjust="spacing" textLength="173" x="319" y="664.5117">override val userId : Long</text><text fill="#000000" font-family="sans-serif" font-size="14" lengthAdjust="spacing" textLength="234" x="319" y="681">val singlePaymentProductId : Long</text><text fill="#000000" font-family="sans-serif" font-size="14" lengthAdjust="spacing" textLength="138" x="319" y="697.4883">val paidAmount : Int</text><text fill="#000000" font-family="sans-serif" font-size="14" lengthAdjust="spacing" textLength="127" x="319" y="713.9766">val paidAt : Instant</text><line style="stroke:#181818;stroke-width:0.5;" x1="314" x2="558" y1="720.9297" y2="720.9297"/></g><!--class JpaOrderEntity--><g id="elem_JpaOrderEntity"><rect codeLine="37" fill="#F1F1F1" height="80.9766" id="JpaOrderEntity" rx="2.5" ry="2.5" style="stroke:#181818;stroke-width:0.5;" width="183" x="484.5" y="457.4883"/><ellipse cx="522.9" cy="473.4883" fill="#A9DCDF" rx="11" ry="11" style="stroke:#181818;stroke-width:1.0;"/><path d="M522.7633,468.8364 L521.6095,473.9082 L523.9254,473.9082 Z M521.2691,466.5952 L524.2657,466.5952 L527.6109,478.9883 L525.1622,478.9883 L524.3985,475.9253 L521.1197,475.9253 L520.3727,478.9883 L517.9239,478.9883 Z " fill="#000000"/><text fill="#000000" font-family="sans-serif" font-size="14" font-style="italic" lengthAdjust="spacing" textLength="99" x="542.1" y="478.7793">JpaOrderEntity</text><line style="stroke:#181818;stroke-width:0.5;" x1="485.5" x2="666.5" y1="489.4883" y2="489.4883"/><text fill="#000000" font-family="sans-serif" font-size="14" lengthAdjust="spacing" textLength="141" x="490.5" y="507.0234">abstract val id : Long</text><text fill="#000000" font-family="sans-serif" font-size="14" lengthAdjust="spacing" textLength="171" x="490.5" y="523.5117">abstract val userId : Long</text><line style="stroke:#181818;stroke-width:0.5;" x1="485.5" x2="666.5" y1="530.4648" y2="530.4648"/></g><!--class JpaSubscriptionOrderEntity--><g id="elem_JpaSubscriptionOrderEntity"><rect codeLine="42" fill="#F1F1F1" height="130.4414" id="JpaSubscriptionOrderEntity" rx="2.5" ry="2.5" style="stroke:#181818;stroke-width:0.5;" width="245" x="594.5" y="598.4883"/><ellipse cx="622.1" cy="614.4883" fill="#ADD1B2" rx="11" ry="11" style="stroke:#181818;stroke-width:1.0;"/><path d="M624.5731,620.6313 Q623.9921,620.9302 623.3529,621.0796 Q622.7138,621.229 622.0082,621.229 Q619.5014,621.229 618.1815,619.5771 Q616.8617,617.9253 616.8617,614.8042 Q616.8617,611.6748 618.1815,610.0229 Q619.5014,608.3711 622.0082,608.3711 Q622.7138,608.3711 623.3612,608.5205 Q624.0087,608.6699 624.5731,608.9688 L624.5731,611.6914 Q623.9423,611.1104 623.3488,610.8406 Q622.7553,610.5708 622.1244,610.5708 Q620.7797,610.5708 620.0949,611.6375 Q619.4101,612.7041 619.4101,614.8042 Q619.4101,616.896 620.0949,617.9626 Q620.7797,619.0293 622.1244,619.0293 Q622.7553,619.0293 623.3488,618.7595 Q623.9423,618.4897 624.5731,617.9087 Z " fill="#000000"/><text fill="#000000" font-family="sans-serif" font-size="14" lengthAdjust="spacing" textLength="185" x="638.9" y="619.7793">JpaSubscriptionOrderEntity</text><line style="stroke:#181818;stroke-width:0.5;" x1="595.5" x2="838.5" y1="630.4883" y2="630.4883"/><text fill="#000000" font-family="sans-serif" font-size="14" lengthAdjust="spacing" textLength="143" x="600.5" y="648.0234">override val id : Long</text><text fill="#000000" font-family="sans-serif" font-size="14" lengthAdjust="spacing" textLength="173" x="600.5" y="664.5117">override val userId : Long</text><text fill="#000000" font-family="sans-serif" font-size="14" lengthAdjust="spacing" textLength="220" x="600.5" y="681">val subscriptionProductId : Long</text><text fill="#000000" font-family="sans-serif" font-size="14" lengthAdjust="spacing" textLength="233" x="600.5" y="697.4883">val paymentAmountPerMonth : Int</text><text fill="#000000" font-family="sans-serif" font-size="14" lengthAdjust="spacing" textLength="150" x="600.5" y="713.9766">val lastPaidAt : Instant</text><line style="stroke:#181818;stroke-width:0.5;" x1="595.5" x2="838.5" y1="720.9297" y2="720.9297"/></g><rect fill="#F1F1F1" height="102.4414" style="stroke:#181818;stroke-width:0.5;" width="389" x="30.5" y="822.4883"/><text fill="#000000" font-family="sans-serif" font-size="14" lengthAdjust="spacing" textLength="152" x="149" y="838.0234">single_payment_order</text><line style="stroke:#181818;stroke-width:1.0;" x1="228.5" x2="228.5" y1="842.9766" y2="924.9297"/><line style="stroke:#181818;stroke-width:1.0;" x1="30.5" x2="419.5" y1="842.9766" y2="842.9766"/><text fill="#000000" font-family="sans-serif" font-size="14" lengthAdjust="spacing" textLength="13" x="35.5" y="858.5117">id</text><text fill="#000000" font-family="sans-serif" font-size="14" lengthAdjust="spacing" textLength="181" x="233.5" y="858.5117">bigint not null primary key</text><line style="stroke:#181818;stroke-width:1.0;" x1="30.5" x2="419.5" y1="863.4648" y2="863.4648"/><text fill="#000000" font-family="sans-serif" font-size="14" lengthAdjust="spacing" textLength="188" x="35.5" y="879">single_payment_product_id</text><text fill="#000000" font-family="sans-serif" font-size="14" lengthAdjust="spacing" textLength="97" x="233.5" y="879">bigint not null</text><line style="stroke:#181818;stroke-width:1.0;" x1="30.5" x2="419.5" y1="883.9531" y2="883.9531"/><text fill="#000000" font-family="sans-serif" font-size="14" lengthAdjust="spacing" textLength="90" x="35.5" y="899.4883">paid_amount</text><text fill="#000000" font-family="sans-serif" font-size="14" lengthAdjust="spacing" textLength="75" x="233.5" y="899.4883">int not null</text><line style="stroke:#181818;stroke-width:1.0;" x1="30.5" x2="419.5" y1="904.4414" y2="904.4414"/><text fill="#000000" font-family="sans-serif" font-size="14" lengthAdjust="spacing" textLength="50" x="35.5" y="919.9766">paid_at</text><text fill="#000000" font-family="sans-serif" font-size="14" lengthAdjust="spacing" textLength="142" x="233.5" y="919.9766">timestamptz not null</text><rect fill="#F1F1F1" height="81.9531" style="stroke:#181818;stroke-width:0.5;" width="213" x="470.5" y="832.9883"/><text fill="#000000" font-family="sans-serif" font-size="14" lengthAdjust="spacing" textLength="38" x="558" y="848.5234">order</text><line style="stroke:#181818;stroke-width:1.0;" x1="530.5" x2="530.5" y1="853.4766" y2="914.9414"/><line style="stroke:#181818;stroke-width:1.0;" x1="470.5" x2="683.5" y1="853.4766" y2="853.4766"/><text fill="#000000" font-family="sans-serif" font-size="14" lengthAdjust="spacing" textLength="13" x="475.5" y="869.0117">id</text><text fill="#000000" font-family="sans-serif" font-size="14" lengthAdjust="spacing" textLength="143" x="535.5" y="869.0117">bigserial primary key</text><line style="stroke:#181818;stroke-width:1.0;" x1="470.5" x2="683.5" y1="873.9648" y2="873.9648"/><text fill="#000000" font-family="sans-serif" font-size="14" lengthAdjust="spacing" textLength="50" x="475.5" y="889.5">user_id</text><text fill="#000000" font-family="sans-serif" font-size="14" lengthAdjust="spacing" textLength="97" x="535.5" y="889.5">bigint not null</text><line style="stroke:#181818;stroke-width:1.0;" x1="470.5" x2="683.5" y1="894.4531" y2="894.4531"/><text fill="#000000" font-family="sans-serif" font-size="14" lengthAdjust="spacing" textLength="29" x="475.5" y="909.9883">type</text><text fill="#000000" font-family="sans-serif" font-size="14" lengthAdjust="spacing" textLength="84" x="535.5" y="909.9883">text not null</text><rect fill="#F1F1F1" height="102.4414" style="stroke:#181818;stroke-width:0.5;" width="402" x="735" y="822.4883"/><text fill="#000000" font-family="sans-serif" font-size="14" lengthAdjust="spacing" textLength="130" x="871" y="838.0234">subscription_order</text><line style="stroke:#181818;stroke-width:1.0;" x1="946" x2="946" y1="842.9766" y2="924.9297"/><line style="stroke:#181818;stroke-width:1.0;" x1="735" x2="1137" y1="842.9766" y2="842.9766"/><text fill="#000000" font-family="sans-serif" font-size="14" lengthAdjust="spacing" textLength="13" x="740" y="858.5117">id</text><text fill="#000000" font-family="sans-serif" font-size="14" lengthAdjust="spacing" textLength="181" x="951" y="858.5117">bigint not null primary key</text><line style="stroke:#181818;stroke-width:1.0;" x1="735" x2="1137" y1="863.4648" y2="863.4648"/><text fill="#000000" font-family="sans-serif" font-size="14" lengthAdjust="spacing" textLength="166" x="740" y="879">subscription_product_id</text><text fill="#000000" font-family="sans-serif" font-size="14" lengthAdjust="spacing" textLength="97" x="951" y="879">bigint not null</text><line style="stroke:#181818;stroke-width:1.0;" x1="735" x2="1137" y1="883.9531" y2="883.9531"/><text fill="#000000" font-family="sans-serif" font-size="14" lengthAdjust="spacing" textLength="201" x="740" y="899.4883">payment_amount_per_month</text><text fill="#000000" font-family="sans-serif" font-size="14" lengthAdjust="spacing" textLength="75" x="951" y="899.4883">int not null</text><line style="stroke:#181818;stroke-width:1.0;" x1="735" x2="1137" y1="904.4414" y2="904.4414"/><text fill="#000000" font-family="sans-serif" font-size="14" lengthAdjust="spacing" textLength="81" x="740" y="919.9766">last_paid_at</text><text fill="#000000" font-family="sans-serif" font-size="14" lengthAdjust="spacing" textLength="142" x="951" y="919.9766">timestamptz not null</text><!--link Order to SinglePaymentOrder--><g id="link_Order_SinglePaymentOrder"><path codeLine="76" d="M538.85,175.7483 C525.67,192.6983 510.48,212.2283 495.89,230.9883 " fill="none" id="Order-to-SinglePaymentOrder" style="stroke:#181818;stroke-width:1.0;"/><polygon fill="#181818" points="492.59,235.2283,501.2764,230.5864,495.6627,231.2838,494.9652,225.6701,492.59,235.2283" style="stroke:#181818;stroke-width:1.0;"/><text fill="#000000" font-family="sans-serif" font-size="13" lengthAdjust="spacing" textLength="48" x="447.7981" y="224.8164">inherits</text></g><!--link Order to SubscriptionOrder--><g id="link_Order_SubscriptionOrder"><path codeLine="77" d="M613.42,175.7483 C626.69,192.6983 641.99,212.2283 656.68,230.9883 " fill="none" id="Order-to-SubscriptionOrder" style="stroke:#181818;stroke-width:1.0;"/><polygon fill="#181818" points="660,235.2283,657.6032,225.6755,656.9185,231.2908,651.3032,230.606,660,235.2283" style="stroke:#181818;stroke-width:1.0;"/><text fill="#000000" font-family="sans-serif" font-size="13" lengthAdjust="spacing" textLength="48" x="604.0266" y="224.8164">inherits</text></g><!--link JpaOrderEntity to JpaSinglePaymentOrderEntity--><g id="link_JpaOrderEntity_JpaSinglePaymentOrderEntity"><path codeLine="81" d="M542.11,538.5683 C527.7,555.3983 510.47,575.5183 494.13,594.5983 " fill="none" id="JpaOrderEntity-to-JpaSinglePaymentOrderEntity" style="stroke:#181818;stroke-width:1.0;"/><polygon fill="#181818" points="490.87,598.4083,499.772,594.1947,494.131,594.6181,493.7077,588.9771,490.87,598.4083" style="stroke:#181818;stroke-width:1.0;"/><text fill="#000000" font-family="sans-serif" font-size="13" lengthAdjust="spacing" textLength="48" x="446.4393" y="587.577">inherits</text></g><!--link JpaOrderEntity to JpaSubscriptionOrderEntity--><g id="link_JpaOrderEntity_JpaSubscriptionOrderEntity"><path codeLine="82" d="M610.13,538.5683 C624.65,555.3983 642,575.5183 658.46,594.5983 " fill="none" id="JpaOrderEntity-to-JpaSubscriptionOrderEntity" style="stroke:#181818;stroke-width:1.0;"/><polygon fill="#181818" points="661.73,598.4083,658.8923,588.9771,658.469,594.6181,652.828,594.1947,661.73,598.4083" style="stroke:#181818;stroke-width:1.0;"/><text fill="#000000" font-family="sans-serif" font-size="13" lengthAdjust="spacing" textLength="48" x="604.5644" y="587.577">inherits</text></g><!--link single_payment_order to order--><!--link order to subscription_order--><!--link SinglePaymentOrder to JpaOrderEntity--><!--link SubscriptionOrder to JpaOrderEntity--><!--link SinglePaymentOrder to JpaSinglePaymentOrderEntity--><g id="link_SinglePaymentOrder_JpaSinglePaymentOrderEntity"><path codeLine="93" d="M413.79,387.8683 C408.14,449.2083 408.42,533.9283 414.61,592.9883 " fill="none" id="SinglePaymentOrder-JpaSinglePaymentOrderEntity" style="stroke:#181818;stroke-width:1.0;"/><polygon fill="#181818" points="414.29,382.5983,409.4362,391.168,413.8052,387.5747,417.3985,391.9437,414.29,382.5983" style="stroke:#181818;stroke-width:1.0;"/><polygon fill="#181818" points="415.19,598.2583,418.1865,588.8763,414.6457,593.288,410.234,589.7472,415.19,598.2583" style="stroke:#181818;stroke-width:1.0;"/></g><!--link SinglePaymentOrder to JpaSinglePaymentOrderEntity--><!--link SinglePaymentOrder to JpaSinglePaymentOrderEntity--><!--link SubscriptionOrder to JpaSubscriptionOrderEntity--><!--link SubscriptionOrder to JpaSubscriptionOrderEntity--><!--link SubscriptionOrder to JpaSubscriptionOrderEntity--><g id="link_SubscriptionOrder_JpaSubscriptionOrderEntity"><path codeLine="98" d="M739.21,387.8683 C744.86,449.2083 744.58,533.9283 738.39,592.9883 " fill="none" id="SubscriptionOrder-JpaSubscriptionOrderEntity-2" style="stroke:#181818;stroke-width:1.0;"/><polygon fill="#181818" points="738.71,382.5983,735.6015,391.9437,739.1948,387.5747,743.5638,391.168,738.71,382.5983" style="stroke:#181818;stroke-width:1.0;"/><polygon fill="#181818" points="737.81,598.2583,742.766,589.7472,738.3543,593.288,734.8135,588.8763,737.81,598.2583" style="stroke:#181818;stroke-width:1.0;"/></g><!--link JpaSinglePaymentOrderEntity to single_payment_order--><g id="link_JpaSinglePaymentOrderEntity_single_payment_order"><path codeLine="102" d="M367.18,732.3283 C340.2,758.9283 309.56,789.1283 283.65,814.6683 " fill="none" id="JpaSinglePaymentOrderEntity-single_payment_order" style="stroke:#181818;stroke-width:1.0;"/><polygon fill="#181818" points="370.97,728.5883,361.7564,732.068,367.4131,732.1023,367.3788,737.7591,370.97,728.5883" style="stroke:#181818;stroke-width:1.0;"/><polygon fill="#181818" points="279.87,818.3983,289.0836,814.9185,283.4269,814.8842,283.4612,809.2275,279.87,818.3983" style="stroke:#181818;stroke-width:1.0;"/></g><!--link JpaSinglePaymentOrderEntity to order--><g id="link_JpaSinglePaymentOrderEntity_order"><path codeLine="103" d="M482.31,732.8083 C502.61,762.7583 525.96,797.1883 544.39,824.3783 " fill="none" id="JpaSinglePaymentOrderEntity-order" style="stroke:#181818;stroke-width:1.0;"/><polygon fill="#181818" points="479.46,728.5883,481.1856,738.2848,482.2598,732.7309,487.8137,733.8051,479.46,728.5883" style="stroke:#181818;stroke-width:1.0;"/><polygon fill="#181818" points="547.3,828.6783,545.5744,818.9818,544.5002,824.5357,538.9463,823.4615,547.3,828.6783" style="stroke:#181818;stroke-width:1.0;"/></g><!--link JpaSubscriptionOrderEntity to subscription_order--><g id="link_JpaSubscriptionOrderEntity_subscription_order"><path codeLine="104" d="M788.43,732.3283 C816.43,758.9283 848.23,789.1283 875.12,814.6683 " fill="none" id="JpaSubscriptionOrderEntity-subscription_order" style="stroke:#181818;stroke-width:1.0;"/><polygon fill="#181818" points="784.49,728.5883,788.2656,737.6847,788.1171,732.0298,793.772,731.8813,784.49,728.5883" style="stroke:#181818;stroke-width:1.0;"/><polygon fill="#181818" points="879.05,818.3983,875.2744,809.3019,875.4229,814.9568,869.768,815.1053,879.05,818.3983" style="stroke:#181818;stroke-width:1.0;"/></g><!--link JpaSubscriptionOrderEntity to order--><g id="link_JpaSubscriptionOrderEntity_order"><path codeLine="105" d="M671.01,732.8083 C650.86,762.7583 627.68,797.1883 609.38,824.3783 " fill="none" id="JpaSubscriptionOrderEntity-order" style="stroke:#181818;stroke-width:1.0;"/><polygon fill="#181818" points="673.85,728.5883,665.4963,733.8051,671.0502,732.7309,672.1244,738.2848,673.85,728.5883" style="stroke:#181818;stroke-width:1.0;"/><polygon fill="#181818" points="606.49,828.6783,614.8313,823.4417,609.28,824.5291,608.1926,818.9777,606.49,828.6783" style="stroke:#181818;stroke-width:1.0;"/></g><text fill="#000000" font-family="sans-serif" font-size="14" lengthAdjust="spacing" textLength="366" x="399" y="975.0234">Double arrows mean data references for conversions.</text><!--SRC=[nLPDZzCm4BtdLunwsGj1MeuhXDXLzr04eXBYX50rZTtMR697jhDG4F-TSMmsgUCaHR1BfAfIviFptZpFfCRY3lSSAiLu2JyoeASeqHZu8EI-v6iyLbpQzvfn7SpkKVTSQy4ut6C9Wbt1MoNtQMjZk5vDUjXZpQ_WLZRLWzszDlq2rbgnfh0h1b4cvrcZODULQgGbwqhQeT4RZCLW_9crVxWrLcDX0-GOvOCvYVB4caHvuX6X31K4hfkjARIehL3olr3TEt-6wRORdkmrr- -Kj8S4wOJAhjF44_0wY8uo2NjySIAxDpKEbNVREewJ0lEifD0ylS88NHfG93MOrrhVvKHCZi5OJuz5uDFgXg75BHeEovi0vOjHChHn4yxOgEW2BGHRKBR5Lkm5zKyg-ZKbrQH5XVe8T_ouUDPvHzbg3skJJj8FT3BOO8kmTPtsypvML9n0LhNztldsMze2d414hH4uYiLrxepAtLJmvV1lTbX7Z-bUl_-QvtwkFs7PzyKJlQa9OEN4D4cvazNcNDu9yOMGngc_tOeNMUPdSixoL-wC0t5kpIAn8SSSu-lOdU17u2MT4Os6ECV4N3mdD3qGkZgMDrI2xsZ-wI0Ou_9pcIUlLkocyuGkABF_fCX_JtdAd_YaUCZ2ycWuPiEbEEKyJFsovM6Aj_bw7YLq3jTOi_vXOCVDg322Cgc1hJQczhBFbjJAV5ZdDxAqGlQXn6PZWXBfJSdXUcS9-4TN9RnU-Sk1ik20aYO0kWnPWMqcMAfcIo6ejVfgeE8emUqUq7p7DQSW0pkbeL2IzgIX2FCy-mK0]--></g></svg>