<?xml version="1.0" encoding="us-ascii" standalone="no"?><svg xmlns="http://www.w3.org/2000/svg" xmlns:xlink="http://www.w3.org/1999/xlink" contentStyleType="text/css" height="829px" preserveAspectRatio="none" style="width:1178px;height:829px;background:#FFFFFF;" version="1.1" viewBox="0 0 1178 829" width="1178px" zoomAndPan="magnify"><defs/><g><text fill="#000000" font-family="sans-serif" font-size="14" font-weight="bold" lengthAdjust="spacing" textLength="272" x="446" y="23.5352">Before Using @Inheritance annotation</text><!--cluster model--><g id="cluster_model"><path d="M299.5,43.4883 L345.5,43.4883 A3.75,3.75 0 0 1 348,45.9883 L355,65.9766 L869.5,65.9766 A2.5,2.5 0 0 1 872,68.4766 L872,395.9883 A2.5,2.5 0 0 1 869.5,398.4883 L299.5,398.4883 A2.5,2.5 0 0 1 297,395.9883 L297,45.9883 A2.5,2.5 0 0 1 299.5,43.4883 " fill="none" style="stroke:#000000;stroke-width:1.5;"/><line style="stroke:#000000;stroke-width:1.5;" x1="297" x2="355" y1="65.9766" y2="65.9766"/><text fill="#000000" font-family="sans-serif" font-size="14" font-weight="bold" lengthAdjust="spacing" textLength="45" x="301" y="59.0234">model</text></g><!--cluster entity1--><g id="cluster_entity1"><path d="M216.5,422.4883 L268.5,422.4883 A3.75,3.75 0 0 1 271,424.9883 L278,444.9766 L952.5,444.9766 A2.5,2.5 0 0 1 955,447.4766 L955,584.9883 A2.5,2.5 0 0 1 952.5,587.4883 L216.5,587.4883 A2.5,2.5 0 0 1 214,584.9883 L214,424.9883 A2.5,2.5 0 0 1 216.5,422.4883 " fill="none" style="stroke:#000000;stroke-width:1.5;"/><line style="stroke:#000000;stroke-width:1.5;" x1="214" x2="278" y1="444.9766" y2="444.9766"/><text fill="#000000" font-family="sans-serif" font-size="14" font-weight="bold" lengthAdjust="spacing" textLength="51" x="218" y="438.0234">entity1</text></g><!--cluster DB--><g id="cluster_DB"><path d="M6,621.4883 C6,611.4883 583.5,611.4883 583.5,611.4883 C583.5,611.4883 1161,611.4883 1161,621.4883 L1161,777.4883 C1161,787.4883 583.5,787.4883 583.5,787.4883 C583.5,787.4883 6,787.4883 6,777.4883 L6,621.4883 " fill="none" style="stroke:#181818;stroke-width:1.0;"/><path d="M6,621.4883 C6,631.4883 583.5,631.4883 583.5,631.4883 C583.5,631.4883 1161,631.4883 1161,621.4883 " fill="none" style="stroke:#181818;stroke-width:1.0;"/><text fill="#000000" font-family="sans-serif" font-size="14" font-weight="bold" lengthAdjust="spacing" textLength="20" x="573.5" y="647.0234">DB</text></g><!--class SinglePaymentOrder--><g id="elem_SinglePaymentOrder"><rect codeLine="3" fill="#F1F1F1" height="146.9297" id="SinglePaymentOrder" rx="2.5" ry="2.5" style="stroke:#181818;stroke-width:0.5;" width="246" x="313" y="235.4883"/><ellipse cx="361.75" cy="251.4883" fill="#ADD1B2" rx="11" ry="11" style="stroke:#181818;stroke-width:1.0;"/><path d="M364.2231,257.6313 Q363.6421,257.9302 363.0029,258.0796 Q362.3638,258.229 361.6582,258.229 Q359.1514,258.229 357.8315,256.5771 Q356.5117,254.9253 356.5117,251.8042 Q356.5117,248.6748 357.8315,247.0229 Q359.1514,245.3711 361.6582,245.3711 Q362.3638,245.3711 363.0112,245.5205 Q363.6587,245.6699 364.2231,245.9688 L364.2231,248.6914 Q363.5923,248.1104 362.9988,247.8406 Q362.4053,247.5708 361.7744,247.5708 Q360.4297,247.5708 359.7449,248.6375 Q359.0601,249.7041 359.0601,251.8042 Q359.0601,253.896 359.7449,254.9626 Q360.4297,256.0293 361.7744,256.0293 Q362.4053,256.0293 362.9988,255.7595 Q363.5923,255.4897 364.2231,254.9087 Z " fill="#000000"/><text fill="#000000" font-family="sans-serif" font-size="14" lengthAdjust="spacing" textLength="140" x="382.25" y="256.7793">SinglePaymentOrder</text><line style="stroke:#181818;stroke-width:0.5;" x1="314" x2="558" y1="267.4883" y2="267.4883"/><text fill="#000000" font-family="sans-serif" font-size="14" lengthAdjust="spacing" textLength="139" x="319" y="285.0234">override val id: Long</text><text fill="#000000" font-family="sans-serif" font-size="14" lengthAdjust="spacing" textLength="169" x="319" y="301.5117">override val userId: Long</text><text fill="#000000" font-family="sans-serif" font-size="14" lengthAdjust="spacing" textLength="155" x="319" y="318">override val type: Long</text><text fill="#000000" font-family="sans-serif" font-size="14" lengthAdjust="spacing" textLength="234" x="319" y="334.4883">val singlePaymentProductId : Long</text><text fill="#000000" font-family="sans-serif" font-size="14" lengthAdjust="spacing" textLength="154" x="319" y="350.9766">val paidAmount : Long</text><text fill="#000000" font-family="sans-serif" font-size="14" lengthAdjust="spacing" textLength="127" x="319" y="367.4648">val paidAt : Instant</text><line style="stroke:#181818;stroke-width:0.5;" x1="314" x2="558" y1="374.418" y2="374.418"/></g><!--class Order--><g id="elem_Order"><rect codeLine="12" fill="#F1F1F1" height="97.4648" id="Order" rx="2.5" ry="2.5" style="stroke:#181818;stroke-width:0.5;" width="179" x="490.5" y="78.4883"/><ellipse cx="555.75" cy="94.4883" fill="#A9DCDF" rx="11" ry="11" style="stroke:#181818;stroke-width:1.0;"/><path d="M555.6133,89.8364 L554.4595,94.9082 L556.7754,94.9082 Z M554.1191,87.5952 L557.1157,87.5952 L560.4609,99.9883 L558.0122,99.9883 L557.2485,96.9253 L553.9697,96.9253 L553.2227,99.9883 L550.7739,99.9883 Z " fill="#000000"/><text fill="#000000" font-family="sans-serif" font-size="14" font-style="italic" lengthAdjust="spacing" textLength="40" x="576.25" y="99.7793">Order</text><line style="stroke:#181818;stroke-width:0.5;" x1="491.5" x2="668.5" y1="110.4883" y2="110.4883"/><text fill="#000000" font-family="sans-serif" font-size="14" lengthAdjust="spacing" textLength="137" x="496.5" y="128.0234">abstract val id: Long</text><text fill="#000000" font-family="sans-serif" font-size="14" lengthAdjust="spacing" textLength="167" x="496.5" y="144.5117">abstract val userId: Long</text><text fill="#000000" font-family="sans-serif" font-size="14" lengthAdjust="spacing" textLength="158" x="496.5" y="161">abstract val type: Enum</text><line style="stroke:#181818;stroke-width:0.5;" x1="491.5" x2="668.5" y1="167.9531" y2="167.9531"/></g><!--class SubscriptionOrder--><g id="elem_SubscriptionOrder"><rect codeLine="18" fill="#F1F1F1" height="146.9297" id="SubscriptionOrder" rx="2.5" ry="2.5" style="stroke:#181818;stroke-width:0.5;" width="261" x="594.5" y="235.4883"/><ellipse cx="657.75" cy="251.4883" fill="#ADD1B2" rx="11" ry="11" style="stroke:#181818;stroke-width:1.0;"/><path d="M660.2231,257.6313 Q659.6421,257.9302 659.0029,258.0796 Q658.3638,258.229 657.6582,258.229 Q655.1514,258.229 653.8315,256.5771 Q652.5117,254.9253 652.5117,251.8042 Q652.5117,248.6748 653.8315,247.0229 Q655.1514,245.3711 657.6582,245.3711 Q658.3638,245.3711 659.0112,245.5205 Q659.6587,245.6699 660.2231,245.9688 L660.2231,248.6914 Q659.5923,248.1104 658.9988,247.8406 Q658.4053,247.5708 657.7744,247.5708 Q656.4297,247.5708 655.7449,248.6375 Q655.0601,249.7041 655.0601,251.8042 Q655.0601,253.896 655.7449,254.9626 Q656.4297,256.0293 657.7744,256.0293 Q658.4053,256.0293 658.9988,255.7595 Q659.5923,255.4897 660.2231,254.9087 Z " fill="#000000"/><text fill="#000000" font-family="sans-serif" font-size="14" lengthAdjust="spacing" textLength="126" x="678.25" y="256.7793">SubscriptionOrder</text><line style="stroke:#181818;stroke-width:0.5;" x1="595.5" x2="854.5" y1="267.4883" y2="267.4883"/><text fill="#000000" font-family="sans-serif" font-size="14" lengthAdjust="spacing" textLength="139" x="600.5" y="285.0234">override val id: Long</text><text fill="#000000" font-family="sans-serif" font-size="14" lengthAdjust="spacing" textLength="169" x="600.5" y="301.5117">override val userId: Long</text><text fill="#000000" font-family="sans-serif" font-size="14" lengthAdjust="spacing" textLength="155" x="600.5" y="318">override val type: Long</text><text fill="#000000" font-family="sans-serif" font-size="14" lengthAdjust="spacing" textLength="220" x="600.5" y="334.4883">val subscriptionProductId : Long</text><text fill="#000000" font-family="sans-serif" font-size="14" lengthAdjust="spacing" textLength="249" x="600.5" y="350.9766">val paymentAmountPerMonth : Long</text><text fill="#000000" font-family="sans-serif" font-size="14" lengthAdjust="spacing" textLength="150" x="600.5" y="367.4648">val lastPaidAt : Instant</text><line style="stroke:#181818;stroke-width:0.5;" x1="595.5" x2="854.5" y1="374.418" y2="374.418"/></g><!--class JpaSinglePaymentOrderEntity--><g id="elem_JpaSinglePaymentOrderEntity"><rect codeLine="29" fill="#F1F1F1" height="113.9531" id="JpaSinglePaymentOrderEntity" rx="2.5" ry="2.5" style="stroke:#181818;stroke-width:0.5;" width="246" x="230" y="457.4883"/><ellipse cx="251.75" cy="473.4883" fill="#ADD1B2" rx="11" ry="11" style="stroke:#181818;stroke-width:1.0;"/><path d="M254.2231,479.6313 Q253.6421,479.9302 253.0029,480.0796 Q252.3638,480.229 251.6582,480.229 Q249.1514,480.229 247.8315,478.5771 Q246.5117,476.9253 246.5117,473.8042 Q246.5117,470.6748 247.8315,469.0229 Q249.1514,467.3711 251.6582,467.3711 Q252.3638,467.3711 253.0112,467.5205 Q253.6587,467.6699 254.2231,467.9688 L254.2231,470.6914 Q253.5923,470.1104 252.9988,469.8406 Q252.4053,469.5708 251.7744,469.5708 Q250.4297,469.5708 249.7449,470.6375 Q249.0601,471.7041 249.0601,473.8042 Q249.0601,475.896 249.7449,476.9626 Q250.4297,478.0293 251.7744,478.0293 Q252.4053,478.0293 252.9988,477.7595 Q253.5923,477.4897 254.2231,476.9087 Z " fill="#000000"/><text fill="#000000" font-family="sans-serif" font-size="14" lengthAdjust="spacing" textLength="199" x="267.25" y="478.7793">JpaSinglePaymentOrderEntity</text><line style="stroke:#181818;stroke-width:0.5;" x1="231" x2="475" y1="489.4883" y2="489.4883"/><text fill="#000000" font-family="sans-serif" font-size="14" lengthAdjust="spacing" textLength="82" x="236" y="507.0234">val id : Long</text><text fill="#000000" font-family="sans-serif" font-size="14" lengthAdjust="spacing" textLength="234" x="236" y="523.5117">val singlePaymentProductId : Long</text><text fill="#000000" font-family="sans-serif" font-size="14" lengthAdjust="spacing" textLength="154" x="236" y="540">val paidAmount : Long</text><text fill="#000000" font-family="sans-serif" font-size="14" lengthAdjust="spacing" textLength="127" x="236" y="556.4883">val paidAt : Instant</text><line style="stroke:#181818;stroke-width:0.5;" x1="231" x2="475" y1="563.4414" y2="563.4414"/></g><!--class JpaOrderEntity--><g id="elem_JpaOrderEntity"><rect codeLine="36" fill="#F1F1F1" height="97.4648" id="JpaOrderEntity" rx="2.5" ry="2.5" style="stroke:#181818;stroke-width:0.5;" width="131" x="511.5" y="465.9883"/><ellipse cx="526.5" cy="481.9883" fill="#ADD1B2" rx="11" ry="11" style="stroke:#181818;stroke-width:1.0;"/><path d="M528.9731,488.1313 Q528.3921,488.4302 527.7529,488.5796 Q527.1138,488.729 526.4082,488.729 Q523.9014,488.729 522.5815,487.0771 Q521.2617,485.4253 521.2617,482.3042 Q521.2617,479.1748 522.5815,477.5229 Q523.9014,475.8711 526.4082,475.8711 Q527.1138,475.8711 527.7612,476.0205 Q528.4087,476.1699 528.9731,476.4688 L528.9731,479.1914 Q528.3423,478.6104 527.7488,478.3406 Q527.1553,478.0708 526.5244,478.0708 Q525.1797,478.0708 524.4949,479.1375 Q523.8101,480.2041 523.8101,482.3042 Q523.8101,484.396 524.4949,485.4626 Q525.1797,486.5293 526.5244,486.5293 Q527.1553,486.5293 527.7488,486.2595 Q528.3423,485.9897 528.9731,485.4087 Z " fill="#000000"/><text fill="#000000" font-family="sans-serif" font-size="14" lengthAdjust="spacing" textLength="99" x="540.5" y="487.2793">JpaOrderEntity</text><line style="stroke:#181818;stroke-width:0.5;" x1="512.5" x2="641.5" y1="497.9883" y2="497.9883"/><text fill="#000000" font-family="sans-serif" font-size="14" lengthAdjust="spacing" textLength="82" x="517.5" y="515.5234">val id : Long</text><text fill="#000000" font-family="sans-serif" font-size="14" lengthAdjust="spacing" textLength="112" x="517.5" y="532.0117">val userId : Long</text><text fill="#000000" font-family="sans-serif" font-size="14" lengthAdjust="spacing" textLength="103" x="517.5" y="548.5">val type : Enum</text><line style="stroke:#181818;stroke-width:0.5;" x1="512.5" x2="641.5" y1="555.4531" y2="555.4531"/></g><!--class JpaSubscriptionOrderEntity--><g id="elem_JpaSubscriptionOrderEntity"><rect codeLine="42" fill="#F1F1F1" height="113.9531" id="JpaSubscriptionOrderEntity" rx="2.5" ry="2.5" style="stroke:#181818;stroke-width:0.5;" width="261" x="677.5" y="457.4883"/><ellipse cx="712.3" cy="473.4883" fill="#ADD1B2" rx="11" ry="11" style="stroke:#181818;stroke-width:1.0;"/><path d="M714.7731,479.6313 Q714.1921,479.9302 713.5529,480.0796 Q712.9138,480.229 712.2082,480.229 Q709.7014,480.229 708.3815,478.5771 Q707.0617,476.9253 707.0617,473.8042 Q707.0617,470.6748 708.3815,469.0229 Q709.7014,467.3711 712.2082,467.3711 Q712.9138,467.3711 713.5612,467.5205 Q714.2087,467.6699 714.7731,467.9688 L714.7731,470.6914 Q714.1423,470.1104 713.5488,469.8406 Q712.9553,469.5708 712.3244,469.5708 Q710.9797,469.5708 710.2949,470.6375 Q709.6101,471.7041 709.6101,473.8042 Q709.6101,475.896 710.2949,476.9626 Q710.9797,478.0293 712.3244,478.0293 Q712.9553,478.0293 713.5488,477.7595 Q714.1423,477.4897 714.7731,476.9087 Z " fill="#000000"/><text fill="#000000" font-family="sans-serif" font-size="14" lengthAdjust="spacing" textLength="185" x="730.7" y="478.7793">JpaSubscriptionOrderEntity</text><line style="stroke:#181818;stroke-width:0.5;" x1="678.5" x2="937.5" y1="489.4883" y2="489.4883"/><text fill="#000000" font-family="sans-serif" font-size="14" lengthAdjust="spacing" textLength="82" x="683.5" y="507.0234">val id : Long</text><text fill="#000000" font-family="sans-serif" font-size="14" lengthAdjust="spacing" textLength="220" x="683.5" y="523.5117">val subscriptionProductId : Long</text><text fill="#000000" font-family="sans-serif" font-size="14" lengthAdjust="spacing" textLength="249" x="683.5" y="540">val paymentAmountPerMonth : Long</text><text fill="#000000" font-family="sans-serif" font-size="14" lengthAdjust="spacing" textLength="150" x="683.5" y="556.4883">val lastPaidAt : Instant</text><line style="stroke:#181818;stroke-width:0.5;" x1="678.5" x2="937.5" y1="563.4414" y2="563.4414"/></g><rect fill="#F1F1F1" height="102.4414" style="stroke:#181818;stroke-width:0.5;" width="389" x="30.5" y="665.4883"/><text fill="#000000" font-family="sans-serif" font-size="14" lengthAdjust="spacing" textLength="152" x="149" y="681.0234">single_payment_order</text><line style="stroke:#181818;stroke-width:1.0;" x1="228.5" x2="228.5" y1="685.9766" y2="767.9297"/><line style="stroke:#181818;stroke-width:1.0;" x1="30.5" x2="419.5" y1="685.9766" y2="685.9766"/><text fill="#000000" font-family="sans-serif" font-size="14" lengthAdjust="spacing" textLength="13" x="35.5" y="701.5117">id</text><text fill="#000000" font-family="sans-serif" font-size="14" lengthAdjust="spacing" textLength="181" x="233.5" y="701.5117">bigint not null primary key</text><line style="stroke:#181818;stroke-width:1.0;" x1="30.5" x2="419.5" y1="706.4648" y2="706.4648"/><text fill="#000000" font-family="sans-serif" font-size="14" lengthAdjust="spacing" textLength="188" x="35.5" y="722">single_payment_product_id</text><text fill="#000000" font-family="sans-serif" font-size="14" lengthAdjust="spacing" textLength="97" x="233.5" y="722">bigint not null</text><line style="stroke:#181818;stroke-width:1.0;" x1="30.5" x2="419.5" y1="726.9531" y2="726.9531"/><text fill="#000000" font-family="sans-serif" font-size="14" lengthAdjust="spacing" textLength="90" x="35.5" y="742.4883">paid_amount</text><text fill="#000000" font-family="sans-serif" font-size="14" lengthAdjust="spacing" textLength="75" x="233.5" y="742.4883">int not null</text><line style="stroke:#181818;stroke-width:1.0;" x1="30.5" x2="419.5" y1="747.4414" y2="747.4414"/><text fill="#000000" font-family="sans-serif" font-size="14" lengthAdjust="spacing" textLength="50" x="35.5" y="762.9766">paid_at</text><text fill="#000000" font-family="sans-serif" font-size="14" lengthAdjust="spacing" textLength="142" x="233.5" y="762.9766">timestamptz not null</text><rect fill="#F1F1F1" height="81.9531" style="stroke:#181818;stroke-width:0.5;" width="213" x="470.5" y="675.9883"/><text fill="#000000" font-family="sans-serif" font-size="14" lengthAdjust="spacing" textLength="38" x="558" y="691.5234">order</text><line style="stroke:#181818;stroke-width:1.0;" x1="530.5" x2="530.5" y1="696.4766" y2="757.9414"/><line style="stroke:#181818;stroke-width:1.0;" x1="470.5" x2="683.5" y1="696.4766" y2="696.4766"/><text fill="#000000" font-family="sans-serif" font-size="14" lengthAdjust="spacing" textLength="13" x="475.5" y="712.0117">id</text><text fill="#000000" font-family="sans-serif" font-size="14" lengthAdjust="spacing" textLength="143" x="535.5" y="712.0117">bigserial primary key</text><line style="stroke:#181818;stroke-width:1.0;" x1="470.5" x2="683.5" y1="716.9648" y2="716.9648"/><text fill="#000000" font-family="sans-serif" font-size="14" lengthAdjust="spacing" textLength="50" x="475.5" y="732.5">user_id</text><text fill="#000000" font-family="sans-serif" font-size="14" lengthAdjust="spacing" textLength="97" x="535.5" y="732.5">bigint not null</text><line style="stroke:#181818;stroke-width:1.0;" x1="470.5" x2="683.5" y1="737.4531" y2="737.4531"/><text fill="#000000" font-family="sans-serif" font-size="14" lengthAdjust="spacing" textLength="29" x="475.5" y="752.9883">type</text><text fill="#000000" font-family="sans-serif" font-size="14" lengthAdjust="spacing" textLength="84" x="535.5" y="752.9883">text not null</text><rect fill="#F1F1F1" height="102.4414" style="stroke:#181818;stroke-width:0.5;" width="402" x="735" y="665.4883"/><text fill="#000000" font-family="sans-serif" font-size="14" lengthAdjust="spacing" textLength="130" x="871" y="681.0234">subscription_order</text><line style="stroke:#181818;stroke-width:1.0;" x1="946" x2="946" y1="685.9766" y2="767.9297"/><line style="stroke:#181818;stroke-width:1.0;" x1="735" x2="1137" y1="685.9766" y2="685.9766"/><text fill="#000000" font-family="sans-serif" font-size="14" lengthAdjust="spacing" textLength="13" x="740" y="701.5117">id</text><text fill="#000000" font-family="sans-serif" font-size="14" lengthAdjust="spacing" textLength="181" x="951" y="701.5117">bigint not null primary key</text><line style="stroke:#181818;stroke-width:1.0;" x1="735" x2="1137" y1="706.4648" y2="706.4648"/><text fill="#000000" font-family="sans-serif" font-size="14" lengthAdjust="spacing" textLength="166" x="740" y="722">subscription_product_id</text><text fill="#000000" font-family="sans-serif" font-size="14" lengthAdjust="spacing" textLength="97" x="951" y="722">bigint not null</text><line style="stroke:#181818;stroke-width:1.0;" x1="735" x2="1137" y1="726.9531" y2="726.9531"/><text fill="#000000" font-family="sans-serif" font-size="14" lengthAdjust="spacing" textLength="201" x="740" y="742.4883">payment_amount_per_month</text><text fill="#000000" font-family="sans-serif" font-size="14" lengthAdjust="spacing" textLength="75" x="951" y="742.4883">int not null</text><line style="stroke:#181818;stroke-width:1.0;" x1="735" x2="1137" y1="747.4414" y2="747.4414"/><text fill="#000000" font-family="sans-serif" font-size="14" lengthAdjust="spacing" textLength="81" x="740" y="762.9766">last_paid_at</text><text fill="#000000" font-family="sans-serif" font-size="14" lengthAdjust="spacing" textLength="142" x="951" y="762.9766">timestamptz not null</text><!--link Order to SinglePaymentOrder--><g id="link_Order_SinglePaymentOrder"><path codeLine="75" d="M541.79,175.7483 C528.23,192.6983 512.61,212.2283 497.6,230.9883 " fill="none" id="Order-to-SinglePaymentOrder" style="stroke:#181818;stroke-width:1.0;"/><polygon fill="#181818" points="494.21,235.2283,502.9618,230.711,497.3387,231.3281,496.7215,225.705,494.21,235.2283" style="stroke:#181818;stroke-width:1.0;"/><text fill="#000000" font-family="sans-serif" font-size="13" lengthAdjust="spacing" textLength="48" x="449.5775" y="224.8164">inherits</text></g><!--link Order to SubscriptionOrder--><g id="link_Order_SubscriptionOrder"><path codeLine="76" d="M618.48,175.7483 C632.13,192.6983 647.86,212.2283 662.97,230.9883 " fill="none" id="Order-to-SubscriptionOrder" style="stroke:#181818;stroke-width:1.0;"/><polygon fill="#181818" points="666.39,235.2283,663.8614,225.7096,663.2543,231.3337,657.6301,230.7266,666.39,235.2283" style="stroke:#181818;stroke-width:1.0;"/><text fill="#000000" font-family="sans-serif" font-size="13" lengthAdjust="spacing" textLength="48" x="610.2581" y="224.8164">inherits</text></g><!--link JpaSinglePaymentOrderEntity to JpaOrderEntity--><!--link JpaOrderEntity to JpaSubscriptionOrderEntity--><!--link single_payment_order to order--><!--link order to subscription_order--><!--link SinglePaymentOrder to JpaSinglePaymentOrderEntity--><g id="link_SinglePaymentOrder_JpaSinglePaymentOrderEntity"><path codeLine="90" d="M404.38,387.5183 C395.62,408.9883 386.24,431.9783 377.93,452.3783 " fill="none" id="SinglePaymentOrder-JpaSinglePaymentOrderEntity" style="stroke:#181818;stroke-width:1.0;"/><polygon fill="#181818" points="406.39,382.5983,399.29,389.4239,404.5035,387.2287,406.6987,392.4423,406.39,382.5983" style="stroke:#181818;stroke-width:1.0;"/><polygon fill="#181818" points="375.95,457.2283,383.0427,450.395,377.8315,452.5958,375.6307,447.3846,375.95,457.2283" style="stroke:#181818;stroke-width:1.0;"/></g><!--link SinglePaymentOrder to JpaOrderEntity--><g id="link_SinglePaymentOrder_JpaOrderEntity"><path codeLine="91" d="M489.24,386.8283 C506.52,411.7683 525.28,438.8483 541.01,461.5383 " fill="none" id="SinglePaymentOrder-JpaOrderEntity" style="stroke:#181818;stroke-width:1.0;"/><polygon fill="#181818" points="486.31,382.5983,488.1511,392.2735,489.159,386.7072,494.7254,387.7151,486.31,382.5983" style="stroke:#181818;stroke-width:1.0;"/><polygon fill="#181818" points="543.9,465.7283,542.0746,456.0501,541.0577,461.6148,535.493,460.5978,543.9,465.7283" style="stroke:#181818;stroke-width:1.0;"/></g><!--link SubscriptionOrder to JpaSubscriptionOrderEntity--><g id="link_SubscriptionOrder_JpaSubscriptionOrderEntity"><path codeLine="92" d="M756.62,387.5183 C765.38,408.9883 774.76,431.9783 783.07,452.3783 " fill="none" id="SubscriptionOrder-JpaSubscriptionOrderEntity" style="stroke:#181818;stroke-width:1.0;"/><polygon fill="#181818" points="754.61,382.5983,754.3013,392.4423,756.4965,387.2287,761.71,389.4239,754.61,382.5983" style="stroke:#181818;stroke-width:1.0;"/><polygon fill="#181818" points="785.05,457.2283,785.3693,447.3846,783.1685,452.5958,777.9573,450.395,785.05,457.2283" style="stroke:#181818;stroke-width:1.0;"/></g><!--link SubscriptionOrder to JpaOrderEntity--><g id="link_SubscriptionOrder_JpaOrderEntity"><path codeLine="93" d="M669.12,386.8283 C650.97,411.7683 631.28,438.8483 614.78,461.5383 " fill="none" id="SubscriptionOrder-JpaOrderEntity" style="stroke:#181818;stroke-width:1.0;"/><polygon fill="#181818" points="672.2,382.5983,663.6694,387.5206,669.2574,386.6407,670.1374,392.2287,672.2,382.5983" style="stroke:#181818;stroke-width:1.0;"/><polygon fill="#181818" points="611.74,465.7283,620.2706,460.8059,614.6826,461.6858,613.8026,456.0978,611.74,465.7283" style="stroke:#181818;stroke-width:1.0;"/></g><!--link JpaSinglePaymentOrderEntity to single_payment_order--><g id="link_JpaSinglePaymentOrderEntity_single_payment_order"><path codeLine="97" d="M314.24,576.0483 C297.8,601.7383 278.71,631.5583 262.42,657.0183 " fill="none" id="JpaSinglePaymentOrderEntity-single_payment_order" style="stroke:#181818;stroke-width:1.0;"/><polygon fill="#181818" points="317,571.7283,308.7768,577.1486,314.3027,575.9383,315.5129,581.4642,317,571.7283" style="stroke:#181818;stroke-width:1.0;"/><polygon fill="#181818" points="259.62,661.3883,267.8301,655.9482,262.3072,657.1717,261.0836,651.6488,259.62,661.3883" style="stroke:#181818;stroke-width:1.0;"/></g><!--link JpaOrderEntity to order--><g id="link_JpaOrderEntity_order"><path codeLine="98" d="M577,568.2483 C577,598.8183 577,637.0283 577,666.8683 " fill="none" id="JpaOrderEntity-order" style="stroke:#181818;stroke-width:1.0;"/><polygon fill="#181818" points="577,563.1383,573,572.1383,577,568.1383,581,572.1383,577,563.1383" style="stroke:#181818;stroke-width:1.0;"/><polygon fill="#181818" points="577,671.9583,581,662.9583,577,666.9583,573,662.9583,577,671.9583" style="stroke:#181818;stroke-width:1.0;"/></g><!--link JpaSubscriptionOrderEntity to subscription_order--><g id="link_JpaSubscriptionOrderEntity_subscription_order"><path codeLine="99" d="M846.76,576.0483 C863.2,601.7383 882.29,631.5583 898.58,657.0183 " fill="none" id="JpaSubscriptionOrderEntity-subscription_order" style="stroke:#181818;stroke-width:1.0;"/><polygon fill="#181818" points="844,571.7283,845.4871,581.4642,846.6973,575.9383,852.2232,577.1486,844,571.7283" style="stroke:#181818;stroke-width:1.0;"/><polygon fill="#181818" points="901.38,661.3883,899.9164,651.6488,898.6928,657.1717,893.1699,655.9482,901.38,661.3883" style="stroke:#181818;stroke-width:1.0;"/></g><text fill="#000000" font-family="sans-serif" font-size="14" lengthAdjust="spacing" textLength="366" x="399" y="818.0234">Double arrows mean data references for conversions.</text><!--SRC=[nLLDYzim4BtxLmovxAKkz5fAQKFsa6LB0wMdKip4catKjIKZoTkcfV-z8yjDP4VsRYXq0o6GUVFntenc6YplSKTGQq4L_Cg0FsM5ri8dgNOLRV1Gat8VZI3Jc_r7Fv0nKX0yO0LIl8PRhNPfQsl9h6SHxj3GoEx_jd416wD5MxgrW0IoGIdUrxfLRjBgBMjb7IhN6NzdtGzkhJDOkfxpcERHdAGvi2Pf3X21vhLgwxY2NknsQqiZ6oUrUXQje_oFIDsr8wYz8VD1AxTF0PcMswILP-PDFtOSIhh3gy7WtJHuFdlN7J1I9OW1ppGtnqelBIvqA6NndO6f-V2QZ4Va4ad-Sti5EjoY9LWj-_g-MQtwpXHzaaAF1dqXnOAZBRPo9xabIlEthRWe8siq1xYdm-B52JsArWHUHJf8xEWRMs17iOFEumB6oPgOPDsudoTitAUEu0mZxhl4IIv-B9vGkP-HK0xzSETrH4f73VzddUDObwWS-XA4BXecMFjfcfNSZrNnLDsPyPLKrg-sxdnTPLdOdRd8t_eSUzRSsKNYb4q1ns_ibA7VL9nZzEhpBtif1AclLJwtkYRTJ3xpka_vLqjE7JePPqmzgJ6CCvpF0qSEDp-Fg2Lk_fjEepbYSqu3tDcDEyMUO3_ZCXJfxnt9Wqvp9oH4IEesQb507arJ2xWFc52OpHN1akwq8VZiKyAxTHWsL2K1AXvfz1vPYPqdh7IxPHyqHd-tK1CgyCiK3DsH8NQomD6Wr8glkcKF-pBx0m00]--></g></svg>