<?xml version="1.0" encoding="us-ascii" standalone="no"?><svg xmlns="http://www.w3.org/2000/svg" xmlns:xlink="http://www.w3.org/1999/xlink" contentStyleType="text/css" height="986px" preserveAspectRatio="none" style="width:1178px;height:986px;background:#FFFFFF;" version="1.1" viewBox="0 0 1178 986" width="1178px" zoomAndPan="magnify"><defs/><g><text fill="#000000" font-family="sans-serif" font-size="14" font-weight="bold" lengthAdjust="spacing" textLength="262" x="451" y="23.5352">After Using @Inheritance annotation</text><!--cluster model--><g id="cluster_model"><path d="M295.5,43.4883 L341.5,43.4883 A3.75,3.75 0 0 1 344,45.9883 L351,65.9766 L865.5,65.9766 A2.5,2.5 0 0 1 868,68.4766 L868,395.9883 A2.5,2.5 0 0 1 865.5,398.4883 L295.5,398.4883 A2.5,2.5 0 0 1 293,395.9883 L293,45.9883 A2.5,2.5 0 0 1 295.5,43.4883 " fill="none" style="stroke:#000000;stroke-width:1.5;"/><line style="stroke:#000000;stroke-width:1.5;" x1="293" x2="351" y1="65.9766" y2="65.9766"/><text fill="#000000" font-family="sans-serif" font-size="14" font-weight="bold" lengthAdjust="spacing" textLength="45" x="297" y="59.0234">model</text></g><!--cluster entity2--><g id="cluster_entity2"><path d="M295.5,422.4883 L347.5,422.4883 A3.75,3.75 0 0 1 350,424.9883 L357,444.9766 L865.5,444.9766 A2.5,2.5 0 0 1 868,447.4766 L868,741.9883 A2.5,2.5 0 0 1 865.5,744.4883 L295.5,744.4883 A2.5,2.5 0 0 1 293,741.9883 L293,424.9883 A2.5,2.5 0 0 1 295.5,422.4883 " fill="none" style="stroke:#000000;stroke-width:1.5;"/><line style="stroke:#000000;stroke-width:1.5;" x1="293" x2="357" y1="444.9766" y2="444.9766"/><text fill="#000000" font-family="sans-serif" font-size="14" font-weight="bold" lengthAdjust="spacing" textLength="51" x="297" y="438.0234">entity2</text></g><!--cluster DB--><g id="cluster_DB"><path d="M6,778.4883 C6,768.4883 583.5,768.4883 583.5,768.4883 C583.5,768.4883 1161,768.4883 1161,778.4883 L1161,934.4883 C1161,944.4883 583.5,944.4883 583.5,944.4883 C583.5,944.4883 6,944.4883 6,934.4883 L6,778.4883 " fill="none" style="stroke:#181818;stroke-width:1.0;"/><path d="M6,778.4883 C6,788.4883 583.5,788.4883 583.5,788.4883 C583.5,788.4883 1161,788.4883 1161,778.4883 " fill="none" style="stroke:#181818;stroke-width:1.0;"/><text fill="#000000" font-family="sans-serif" font-size="14" font-weight="bold" lengthAdjust="spacing" textLength="20" x="573.5" y="804.0234">DB</text></g><!--class SinglePaymentOrder--><g id="elem_SinglePaymentOrder"><rect codeLine="3" fill="#F1F1F1" height="146.9297" id="SinglePaymentOrder" rx="2.5" ry="2.5" style="stroke:#181818;stroke-width:0.5;" width="246" x="309" y="235.4883"/><ellipse cx="357.75" cy="251.4883" fill="#ADD1B2" rx="11" ry="11" style="stroke:#181818;stroke-width:1.0;"/><path d="M360.2231,257.6313 Q359.6421,257.9302 359.0029,258.0796 Q358.3638,258.229 357.6582,258.229 Q355.1514,258.229 353.8315,256.5771 Q352.5117,254.9253 352.5117,251.8042 Q352.5117,248.6748 353.8315,247.0229 Q355.1514,245.3711 357.6582,245.3711 Q358.3638,245.3711 359.0112,245.5205 Q359.6587,245.6699 360.2231,245.9688 L360.2231,248.6914 Q359.5923,248.1104 358.9988,247.8406 Q358.4053,247.5708 357.7744,247.5708 Q356.4297,247.5708 355.7449,248.6375 Q355.0601,249.7041 355.0601,251.8042 Q355.0601,253.896 355.7449,254.9626 Q356.4297,256.0293 357.7744,256.0293 Q358.4053,256.0293 358.9988,255.7595 Q359.5923,255.4897 360.2231,254.9087 Z " fill="#000000"/><text fill="#000000" font-family="sans-serif" font-size="14" lengthAdjust="spacing" textLength="140" x="378.25" y="256.7793">SinglePaymentOrder</text><line style="stroke:#181818;stroke-width:0.5;" x1="310" x2="554" y1="267.4883" y2="267.4883"/><text fill="#000000" font-family="sans-serif" font-size="14" lengthAdjust="spacing" textLength="139" x="315" y="285.0234">override val id: Long</text><text fill="#000000" font-family="sans-serif" font-size="14" lengthAdjust="spacing" textLength="169" x="315" y="301.5117">override val userId: Long</text><text fill="#000000" font-family="sans-serif" font-size="14" lengthAdjust="spacing" textLength="155" x="315" y="318">override val type: Long</text><text fill="#000000" font-family="sans-serif" font-size="14" lengthAdjust="spacing" textLength="234" x="315" y="334.4883">val singlePaymentProductId : Long</text><text fill="#000000" font-family="sans-serif" font-size="14" lengthAdjust="spacing" textLength="154" x="315" y="350.9766">val paidAmount : Long</text><text fill="#000000" font-family="sans-serif" font-size="14" lengthAdjust="spacing" textLength="127" x="315" y="367.4648">val paidAt : Instant</text><line style="stroke:#181818;stroke-width:0.5;" x1="310" x2="554" y1="374.418" y2="374.418"/></g><!--class Order--><g id="elem_Order"><rect codeLine="12" fill="#F1F1F1" height="97.4648" id="Order" rx="2.5" ry="2.5" style="stroke:#181818;stroke-width:0.5;" width="179" x="486.5" y="78.4883"/><ellipse cx="551.75" cy="94.4883" fill="#A9DCDF" rx="11" ry="11" style="stroke:#181818;stroke-width:1.0;"/><path d="M551.6133,89.8364 L550.4595,94.9082 L552.7754,94.9082 Z M550.1191,87.5952 L553.1157,87.5952 L556.4609,99.9883 L554.0122,99.9883 L553.2485,96.9253 L549.9697,96.9253 L549.2227,99.9883 L546.7739,99.9883 Z " fill="#000000"/><text fill="#000000" font-family="sans-serif" font-size="14" font-style="italic" lengthAdjust="spacing" textLength="40" x="572.25" y="99.7793">Order</text><line style="stroke:#181818;stroke-width:0.5;" x1="487.5" x2="664.5" y1="110.4883" y2="110.4883"/><text fill="#000000" font-family="sans-serif" font-size="14" lengthAdjust="spacing" textLength="137" x="492.5" y="128.0234">abstract val id: Long</text><text fill="#000000" font-family="sans-serif" font-size="14" lengthAdjust="spacing" textLength="167" x="492.5" y="144.5117">abstract val userId: Long</text><text fill="#000000" font-family="sans-serif" font-size="14" lengthAdjust="spacing" textLength="158" x="492.5" y="161">abstract val type: Enum</text><line style="stroke:#181818;stroke-width:0.5;" x1="487.5" x2="664.5" y1="167.9531" y2="167.9531"/></g><!--class SubscriptionOrder--><g id="elem_SubscriptionOrder"><rect codeLine="18" fill="#F1F1F1" height="146.9297" id="SubscriptionOrder" rx="2.5" ry="2.5" style="stroke:#181818;stroke-width:0.5;" width="261" x="590.5" y="235.4883"/><ellipse cx="653.75" cy="251.4883" fill="#ADD1B2" rx="11" ry="11" style="stroke:#181818;stroke-width:1.0;"/><path d="M656.2231,257.6313 Q655.6421,257.9302 655.0029,258.0796 Q654.3638,258.229 653.6582,258.229 Q651.1514,258.229 649.8315,256.5771 Q648.5117,254.9253 648.5117,251.8042 Q648.5117,248.6748 649.8315,247.0229 Q651.1514,245.3711 653.6582,245.3711 Q654.3638,245.3711 655.0112,245.5205 Q655.6587,245.6699 656.2231,245.9688 L656.2231,248.6914 Q655.5923,248.1104 654.9988,247.8406 Q654.4053,247.5708 653.7744,247.5708 Q652.4297,247.5708 651.7449,248.6375 Q651.0601,249.7041 651.0601,251.8042 Q651.0601,253.896 651.7449,254.9626 Q652.4297,256.0293 653.7744,256.0293 Q654.4053,256.0293 654.9988,255.7595 Q655.5923,255.4897 656.2231,254.9087 Z " fill="#000000"/><text fill="#000000" font-family="sans-serif" font-size="14" lengthAdjust="spacing" textLength="126" x="674.25" y="256.7793">SubscriptionOrder</text><line style="stroke:#181818;stroke-width:0.5;" x1="591.5" x2="850.5" y1="267.4883" y2="267.4883"/><text fill="#000000" font-family="sans-serif" font-size="14" lengthAdjust="spacing" textLength="139" x="596.5" y="285.0234">override val id: Long</text><text fill="#000000" font-family="sans-serif" font-size="14" lengthAdjust="spacing" textLength="169" x="596.5" y="301.5117">override val userId: Long</text><text fill="#000000" font-family="sans-serif" font-size="14" lengthAdjust="spacing" textLength="155" x="596.5" y="318">override val type: Long</text><text fill="#000000" font-family="sans-serif" font-size="14" lengthAdjust="spacing" textLength="220" x="596.5" y="334.4883">val subscriptionProductId : Long</text><text fill="#000000" font-family="sans-serif" font-size="14" lengthAdjust="spacing" textLength="249" x="596.5" y="350.9766">val paymentAmountPerMonth : Long</text><text fill="#000000" font-family="sans-serif" font-size="14" lengthAdjust="spacing" textLength="150" x="596.5" y="367.4648">val lastPaidAt : Instant</text><line style="stroke:#181818;stroke-width:0.5;" x1="591.5" x2="850.5" y1="374.418" y2="374.418"/></g><!--class JpaSinglePaymentOrderEntity--><g id="elem_JpaSinglePaymentOrderEntity"><rect codeLine="29" fill="#F1F1F1" height="130.4414" id="JpaSinglePaymentOrderEntity" rx="2.5" ry="2.5" style="stroke:#181818;stroke-width:0.5;" width="246" x="309" y="598.4883"/><ellipse cx="330.75" cy="614.4883" fill="#ADD1B2" rx="11" ry="11" style="stroke:#181818;stroke-width:1.0;"/><path d="M333.2231,620.6313 Q332.6421,620.9302 332.0029,621.0796 Q331.3638,621.229 330.6582,621.229 Q328.1514,621.229 326.8315,619.5771 Q325.5117,617.9253 325.5117,614.8042 Q325.5117,611.6748 326.8315,610.0229 Q328.1514,608.3711 330.6582,608.3711 Q331.3638,608.3711 332.0112,608.5205 Q332.6587,608.6699 333.2231,608.9688 L333.2231,611.6914 Q332.5923,611.1104 331.9988,610.8406 Q331.4053,610.5708 330.7744,610.5708 Q329.4297,610.5708 328.7449,611.6375 Q328.0601,612.7041 328.0601,614.8042 Q328.0601,616.896 328.7449,617.9626 Q329.4297,619.0293 330.7744,619.0293 Q331.4053,619.0293 331.9988,618.7595 Q332.5923,618.4897 333.2231,617.9087 Z " fill="#000000"/><text fill="#000000" font-family="sans-serif" font-size="14" lengthAdjust="spacing" textLength="199" x="346.25" y="619.7793">JpaSinglePaymentOrderEntity</text><line style="stroke:#181818;stroke-width:0.5;" x1="310" x2="554" y1="630.4883" y2="630.4883"/><text fill="#000000" font-family="sans-serif" font-size="14" lengthAdjust="spacing" textLength="143" x="315" y="648.0234">override val id : Long</text><text fill="#000000" font-family="sans-serif" font-size="14" lengthAdjust="spacing" textLength="173" x="315" y="664.5117">override val userId : Long</text><text fill="#000000" font-family="sans-serif" font-size="14" lengthAdjust="spacing" textLength="234" x="315" y="681">val singlePaymentProductId : Long</text><text fill="#000000" font-family="sans-serif" font-size="14" lengthAdjust="spacing" textLength="154" x="315" y="697.4883">val paidAmount : Long</text><text fill="#000000" font-family="sans-serif" font-size="14" lengthAdjust="spacing" textLength="127" x="315" y="713.9766">val paidAt : Instant</text><line style="stroke:#181818;stroke-width:0.5;" x1="310" x2="554" y1="720.9297" y2="720.9297"/></g><!--class JpaOrderEntity--><g id="elem_JpaOrderEntity"><rect codeLine="37" fill="#F1F1F1" height="80.9766" id="JpaOrderEntity" rx="2.5" ry="2.5" style="stroke:#181818;stroke-width:0.5;" width="183" x="484.5" y="457.4883"/><ellipse cx="522.9" cy="473.4883" fill="#A9DCDF" rx="11" ry="11" style="stroke:#181818;stroke-width:1.0;"/><path d="M522.7633,468.8364 L521.6095,473.9082 L523.9254,473.9082 Z M521.2691,466.5952 L524.2657,466.5952 L527.6109,478.9883 L525.1622,478.9883 L524.3985,475.9253 L521.1197,475.9253 L520.3727,478.9883 L517.9239,478.9883 Z " fill="#000000"/><text fill="#000000" font-family="sans-serif" font-size="14" font-style="italic" lengthAdjust="spacing" textLength="99" x="542.1" y="478.7793">JpaOrderEntity</text><line style="stroke:#181818;stroke-width:0.5;" x1="485.5" x2="666.5" y1="489.4883" y2="489.4883"/><text fill="#000000" font-family="sans-serif" font-size="14" lengthAdjust="spacing" textLength="141" x="490.5" y="507.0234">abstract val id : Long</text><text fill="#000000" font-family="sans-serif" font-size="14" lengthAdjust="spacing" textLength="171" x="490.5" y="523.5117">abstract val userId : Long</text><line style="stroke:#181818;stroke-width:0.5;" x1="485.5" x2="666.5" y1="530.4648" y2="530.4648"/></g><!--class JpaSubscriptionOrderEntity--><g id="elem_JpaSubscriptionOrderEntity"><rect codeLine="42" fill="#F1F1F1" height="130.4414" id="JpaSubscriptionOrderEntity" rx="2.5" ry="2.5" style="stroke:#181818;stroke-width:0.5;" width="261" x="590.5" y="598.4883"/><ellipse cx="625.3" cy="614.4883" fill="#ADD1B2" rx="11" ry="11" style="stroke:#181818;stroke-width:1.0;"/><path d="M627.7731,620.6313 Q627.1921,620.9302 626.5529,621.0796 Q625.9138,621.229 625.2082,621.229 Q622.7014,621.229 621.3815,619.5771 Q620.0617,617.9253 620.0617,614.8042 Q620.0617,611.6748 621.3815,610.0229 Q622.7014,608.3711 625.2082,608.3711 Q625.9138,608.3711 626.5612,608.5205 Q627.2087,608.6699 627.7731,608.9688 L627.7731,611.6914 Q627.1423,611.1104 626.5488,610.8406 Q625.9553,610.5708 625.3244,610.5708 Q623.9797,610.5708 623.2949,611.6375 Q622.6101,612.7041 622.6101,614.8042 Q622.6101,616.896 623.2949,617.9626 Q623.9797,619.0293 625.3244,619.0293 Q625.9553,619.0293 626.5488,618.7595 Q627.1423,618.4897 627.7731,617.9087 Z " fill="#000000"/><text fill="#000000" font-family="sans-serif" font-size="14" lengthAdjust="spacing" textLength="185" x="643.7" y="619.7793">JpaSubscriptionOrderEntity</text><line style="stroke:#181818;stroke-width:0.5;" x1="591.5" x2="850.5" y1="630.4883" y2="630.4883"/><text fill="#000000" font-family="sans-serif" font-size="14" lengthAdjust="spacing" textLength="143" x="596.5" y="648.0234">override val id : Long</text><text fill="#000000" font-family="sans-serif" font-size="14" lengthAdjust="spacing" textLength="173" x="596.5" y="664.5117">override val userId : Long</text><text fill="#000000" font-family="sans-serif" font-size="14" lengthAdjust="spacing" textLength="220" x="596.5" y="681">val subscriptionProductId : Long</text><text fill="#000000" font-family="sans-serif" font-size="14" lengthAdjust="spacing" textLength="249" x="596.5" y="697.4883">val paymentAmountPerMonth : Long</text><text fill="#000000" font-family="sans-serif" font-size="14" lengthAdjust="spacing" textLength="150" x="596.5" y="713.9766">val lastPaidAt : Instant</text><line style="stroke:#181818;stroke-width:0.5;" x1="591.5" x2="850.5" y1="720.9297" y2="720.9297"/></g><rect fill="#F1F1F1" height="102.4414" style="stroke:#181818;stroke-width:0.5;" width="389" x="30.5" y="822.4883"/><text fill="#000000" font-family="sans-serif" font-size="14" lengthAdjust="spacing" textLength="152" x="149" y="838.0234">single_payment_order</text><line style="stroke:#181818;stroke-width:1.0;" x1="228.5" x2="228.5" y1="842.9766" y2="924.9297"/><line style="stroke:#181818;stroke-width:1.0;" x1="30.5" x2="419.5" y1="842.9766" y2="842.9766"/><text fill="#000000" font-family="sans-serif" font-size="14" lengthAdjust="spacing" textLength="13" x="35.5" y="858.5117">id</text><text fill="#000000" font-family="sans-serif" font-size="14" lengthAdjust="spacing" textLength="181" x="233.5" y="858.5117">bigint not null primary key</text><line style="stroke:#181818;stroke-width:1.0;" x1="30.5" x2="419.5" y1="863.4648" y2="863.4648"/><text fill="#000000" font-family="sans-serif" font-size="14" lengthAdjust="spacing" textLength="188" x="35.5" y="879">single_payment_product_id</text><text fill="#000000" font-family="sans-serif" font-size="14" lengthAdjust="spacing" textLength="97" x="233.5" y="879">bigint not null</text><line style="stroke:#181818;stroke-width:1.0;" x1="30.5" x2="419.5" y1="883.9531" y2="883.9531"/><text fill="#000000" font-family="sans-serif" font-size="14" lengthAdjust="spacing" textLength="90" x="35.5" y="899.4883">paid_amount</text><text fill="#000000" font-family="sans-serif" font-size="14" lengthAdjust="spacing" textLength="75" x="233.5" y="899.4883">int not null</text><line style="stroke:#181818;stroke-width:1.0;" x1="30.5" x2="419.5" y1="904.4414" y2="904.4414"/><text fill="#000000" font-family="sans-serif" font-size="14" lengthAdjust="spacing" textLength="50" x="35.5" y="919.9766">paid_at</text><text fill="#000000" font-family="sans-serif" font-size="14" lengthAdjust="spacing" textLength="142" x="233.5" y="919.9766">timestamptz not null</text><rect fill="#F1F1F1" height="81.9531" style="stroke:#181818;stroke-width:0.5;" width="213" x="470.5" y="832.9883"/><text fill="#000000" font-family="sans-serif" font-size="14" lengthAdjust="spacing" textLength="38" x="558" y="848.5234">order</text><line style="stroke:#181818;stroke-width:1.0;" x1="530.5" x2="530.5" y1="853.4766" y2="914.9414"/><line style="stroke:#181818;stroke-width:1.0;" x1="470.5" x2="683.5" y1="853.4766" y2="853.4766"/><text fill="#000000" font-family="sans-serif" font-size="14" lengthAdjust="spacing" textLength="13" x="475.5" y="869.0117">id</text><text fill="#000000" font-family="sans-serif" font-size="14" lengthAdjust="spacing" textLength="143" x="535.5" y="869.0117">bigserial primary key</text><line style="stroke:#181818;stroke-width:1.0;" x1="470.5" x2="683.5" y1="873.9648" y2="873.9648"/><text fill="#000000" font-family="sans-serif" font-size="14" lengthAdjust="spacing" textLength="50" x="475.5" y="889.5">user_id</text><text fill="#000000" font-family="sans-serif" font-size="14" lengthAdjust="spacing" textLength="97" x="535.5" y="889.5">bigint not null</text><line style="stroke:#181818;stroke-width:1.0;" x1="470.5" x2="683.5" y1="894.4531" y2="894.4531"/><text fill="#000000" font-family="sans-serif" font-size="14" lengthAdjust="spacing" textLength="29" x="475.5" y="909.9883">type</text><text fill="#000000" font-family="sans-serif" font-size="14" lengthAdjust="spacing" textLength="84" x="535.5" y="909.9883">text not null</text><rect fill="#F1F1F1" height="102.4414" style="stroke:#181818;stroke-width:0.5;" width="402" x="735" y="822.4883"/><text fill="#000000" font-family="sans-serif" font-size="14" lengthAdjust="spacing" textLength="130" x="871" y="838.0234">subscription_order</text><line style="stroke:#181818;stroke-width:1.0;" x1="946" x2="946" y1="842.9766" y2="924.9297"/><line style="stroke:#181818;stroke-width:1.0;" x1="735" x2="1137" y1="842.9766" y2="842.9766"/><text fill="#000000" font-family="sans-serif" font-size="14" lengthAdjust="spacing" textLength="13" x="740" y="858.5117">id</text><text fill="#000000" font-family="sans-serif" font-size="14" lengthAdjust="spacing" textLength="181" x="951" y="858.5117">bigint not null primary key</text><line style="stroke:#181818;stroke-width:1.0;" x1="735" x2="1137" y1="863.4648" y2="863.4648"/><text fill="#000000" font-family="sans-serif" font-size="14" lengthAdjust="spacing" textLength="166" x="740" y="879">subscription_product_id</text><text fill="#000000" font-family="sans-serif" font-size="14" lengthAdjust="spacing" textLength="97" x="951" y="879">bigint not null</text><line style="stroke:#181818;stroke-width:1.0;" x1="735" x2="1137" y1="883.9531" y2="883.9531"/><text fill="#000000" font-family="sans-serif" font-size="14" lengthAdjust="spacing" textLength="201" x="740" y="899.4883">payment_amount_per_month</text><text fill="#000000" font-family="sans-serif" font-size="14" lengthAdjust="spacing" textLength="75" x="951" y="899.4883">int not null</text><line style="stroke:#181818;stroke-width:1.0;" x1="735" x2="1137" y1="904.4414" y2="904.4414"/><text fill="#000000" font-family="sans-serif" font-size="14" lengthAdjust="spacing" textLength="81" x="740" y="919.9766">last_paid_at</text><text fill="#000000" font-family="sans-serif" font-size="14" lengthAdjust="spacing" textLength="142" x="951" y="919.9766">timestamptz not null</text><!--link Order to SinglePaymentOrder--><g id="link_Order_SinglePaymentOrder"><path codeLine="76" d="M537.79,175.7483 C524.23,192.6983 508.61,212.2283 493.6,230.9883 " fill="none" id="Order-to-SinglePaymentOrder" style="stroke:#181818;stroke-width:1.0;"/><polygon fill="#181818" points="490.21,235.2283,498.9618,230.711,493.3387,231.3281,492.7215,225.705,490.21,235.2283" style="stroke:#181818;stroke-width:1.0;"/><text fill="#000000" font-family="sans-serif" font-size="13" lengthAdjust="spacing" textLength="48" x="445.5775" y="224.8164">inherits</text></g><!--link Order to SubscriptionOrder--><g id="link_Order_SubscriptionOrder"><path codeLine="77" d="M614.48,175.7483 C628.13,192.6983 643.86,212.2283 658.97,230.9883 " fill="none" id="Order-to-SubscriptionOrder" style="stroke:#181818;stroke-width:1.0;"/><polygon fill="#181818" points="662.39,235.2283,659.8614,225.7096,659.2543,231.3337,653.6301,230.7266,662.39,235.2283" style="stroke:#181818;stroke-width:1.0;"/><text fill="#000000" font-family="sans-serif" font-size="13" lengthAdjust="spacing" textLength="48" x="606.2581" y="224.8164">inherits</text></g><!--link JpaOrderEntity to JpaSinglePaymentOrderEntity--><g id="link_JpaOrderEntity_JpaSinglePaymentOrderEntity"><path codeLine="81" d="M541.14,538.5683 C526.32,555.3983 508.59,575.5183 491.79,594.5983 " fill="none" id="JpaOrderEntity-to-JpaSinglePaymentOrderEntity" style="stroke:#181818;stroke-width:1.0;"/><polygon fill="#181818" points="488.44,598.4083,497.3846,594.2859,491.7396,594.6516,491.3739,589.0066,488.44,598.4083" style="stroke:#181818;stroke-width:1.0;"/><text fill="#000000" font-family="sans-serif" font-size="13" lengthAdjust="spacing" textLength="48" x="444.1909" y="587.577">inherits</text></g><!--link JpaOrderEntity to JpaSubscriptionOrderEntity--><g id="link_JpaOrderEntity_JpaSubscriptionOrderEntity"><path codeLine="82" d="M611.1,538.5683 C626.03,555.3983 643.87,575.5183 660.8,594.5983 " fill="none" id="JpaOrderEntity-to-JpaSubscriptionOrderEntity" style="stroke:#181818;stroke-width:1.0;"/><polygon fill="#181818" points="664.17,598.4083,661.1781,589.0249,660.8473,594.672,655.2001,594.3412,664.17,598.4083" style="stroke:#181818;stroke-width:1.0;"/><text fill="#000000" font-family="sans-serif" font-size="13" lengthAdjust="spacing" textLength="48" x="606.824" y="587.577">inherits</text></g><!--link single_payment_order to order--><!--link order to subscription_order--><!--link SinglePaymentOrder to JpaOrderEntity--><!--link SubscriptionOrder to JpaOrderEntity--><!--link SinglePaymentOrder to JpaSinglePaymentOrderEntity--><g id="link_SinglePaymentOrder_JpaSinglePaymentOrderEntity"><path codeLine="93" d="M409.79,387.8683 C404.14,449.2083 404.42,533.9283 410.61,592.9883 " fill="none" id="SinglePaymentOrder-JpaSinglePaymentOrderEntity" style="stroke:#181818;stroke-width:1.0;"/><polygon fill="#181818" points="410.29,382.5983,405.4362,391.168,409.8052,387.5747,413.3985,391.9437,410.29,382.5983" style="stroke:#181818;stroke-width:1.0;"/><polygon fill="#181818" points="411.19,598.2583,414.1865,588.8763,410.6457,593.288,406.234,589.7472,411.19,598.2583" style="stroke:#181818;stroke-width:1.0;"/></g><!--link SinglePaymentOrder to JpaSinglePaymentOrderEntity--><!--link SinglePaymentOrder to JpaSinglePaymentOrderEntity--><!--link SubscriptionOrder to JpaSubscriptionOrderEntity--><!--link SubscriptionOrder to JpaSubscriptionOrderEntity--><!--link SubscriptionOrder to JpaSubscriptionOrderEntity--><g id="link_SubscriptionOrder_JpaSubscriptionOrderEntity"><path codeLine="98" d="M743.21,387.8683 C748.86,449.2083 748.58,533.9283 742.39,592.9883 " fill="none" id="SubscriptionOrder-JpaSubscriptionOrderEntity-2" style="stroke:#181818;stroke-width:1.0;"/><polygon fill="#181818" points="742.71,382.5983,739.6015,391.9437,743.1948,387.5747,747.5638,391.168,742.71,382.5983" style="stroke:#181818;stroke-width:1.0;"/><polygon fill="#181818" points="741.81,598.2583,746.766,589.7472,742.3543,593.288,738.8135,588.8763,741.81,598.2583" style="stroke:#181818;stroke-width:1.0;"/></g><!--link JpaSinglePaymentOrderEntity to single_payment_order--><g id="link_JpaSinglePaymentOrderEntity_single_payment_order"><path codeLine="102" d="M364.49,732.3283 C338.02,758.9283 307.96,789.1283 282.54,814.6683 " fill="none" id="JpaSinglePaymentOrderEntity-single_payment_order" style="stroke:#181818;stroke-width:1.0;"/><polygon fill="#181818" points="368.2,728.5883,359.0148,732.1424,364.6716,732.131,364.683,737.7878,368.2,728.5883" style="stroke:#181818;stroke-width:1.0;"/><polygon fill="#181818" points="278.83,818.3983,288.008,814.8256,282.3512,814.8485,282.3283,809.1917,278.83,818.3983" style="stroke:#181818;stroke-width:1.0;"/></g><!--link JpaSinglePaymentOrderEntity to order--><g id="link_JpaSinglePaymentOrderEntity_order"><path codeLine="103" d="M479.63,732.8083 C500.5,762.7583 524.51,797.1883 543.46,824.3783 " fill="none" id="JpaSinglePaymentOrderEntity-order" style="stroke:#181818;stroke-width:1.0;"/><polygon fill="#181818" points="476.69,728.5883,478.5539,738.2592,479.5487,732.6905,485.1174,733.6853,476.69,728.5883" style="stroke:#181818;stroke-width:1.0;"/><polygon fill="#181818" points="546.46,828.6783,544.6119,819.0044,543.608,824.5714,538.041,823.5675,546.46,828.6783" style="stroke:#181818;stroke-width:1.0;"/></g><!--link JpaSubscriptionOrderEntity to subscription_order--><g id="link_JpaSubscriptionOrderEntity_subscription_order"><path codeLine="104" d="M791.12,732.3283 C818.61,758.9283 849.83,789.1283 876.23,814.6683 " fill="none" id="JpaSubscriptionOrderEntity-subscription_order" style="stroke:#181818;stroke-width:1.0;"/><polygon fill="#181818" points="787.26,728.5883,790.9621,737.7149,790.8592,732.059,796.5151,731.9561,787.26,728.5883" style="stroke:#181818;stroke-width:1.0;"/><polygon fill="#181818" points="880.09,818.3983,876.4248,809.2568,876.5048,814.9131,870.8485,814.9931,880.09,818.3983" style="stroke:#181818;stroke-width:1.0;"/></g><!--link JpaSubscriptionOrderEntity to order--><g id="link_JpaSubscriptionOrderEntity_order"><path codeLine="105" d="M673.7,732.8083 C652.97,762.7583 629.13,797.1883 610.31,824.3783 " fill="none" id="JpaSubscriptionOrderEntity-order" style="stroke:#181818;stroke-width:1.0;"/><polygon fill="#181818" points="676.62,728.5883,668.2046,733.7051,673.771,732.6972,674.7789,738.2635,676.62,728.5883" style="stroke:#181818;stroke-width:1.0;"/><polygon fill="#181818" points="607.33,828.6783,615.7574,823.5813,610.1887,824.5761,609.1939,819.0074,607.33,828.6783" style="stroke:#181818;stroke-width:1.0;"/></g><text fill="#000000" font-family="sans-serif" font-size="14" lengthAdjust="spacing" textLength="366" x="399" y="975.0234">Double arrows mean data references for conversions.</text><!--SRC=[pLPDZzCm4BtdLunwsGj1WYD2Y5rr3qKWAY5E24NJs6szczYHxImKn7zdR8TDwZf9qR90fAfIviFptZpFfC7o5dSSQiLu1TypeAUiq1Zu8EIkuciyr5pQzvfntPdTe-wure9nkCCA17i1RvNSfQsjuNerwM4F3O_ixhKP5h3MYhMbNJ58U3Oes6MjMcb7hSwoaiQYjDxu8_D_k35MOsaxp37CUtCIvf4r2VF88y2ybcqzhA0ZkzsOKel62YN_2TU3ysUezkq8RA-vVgUatQSS2PPTfvadv4qdEqebxE7vaV3UD7YglMllECuApDC2_uV625uQKIGsc5VRqEL8Jex2M56FnU1VLWv3Yniq79PN7POResJNoA8xf53H7Le8jg1iYutO2UgWLFHhAofAYnhr0MxvOV6azuwoDG5NaKuo37GwAD13zAxJVi77YfeJoBgntthVOKyzm0b4r1k1erXSwywet0s6K0x_Qa_h630zQFY3UHxc-XsMGry2qKL306kdfadAdQoAStadn1T26YT_lnaliYoCvPpbhzmPU-BScaLYIuuvnlUnFo4CmMTqHZGRuXmJa_6SqFH4wEjONb49eQFvfxrWZClFLPwyMh6RpXEweCpXioB_DUSfV-ApuZuBowFfc9tknIddqzGlFGzJlCtNyoYXSxZ6clK70tjkHeNHAPCQwBKnjPb3jgHMviDwlv6jrMK_bTXiJAT4UbDnkDnQ0lxHLGclL-5oe2mveAG9W2v3LgBF14lLRYW4jLPV3DGS9RZT0vflkUOKP62hD9HAqg8q566UPZy1]--></g></svg>